<svg xmlns="http://www.w3.org/2000/svg" width="400" height="400" viewBox="0 0 400 400"><g transform="translate(200, 200) translate(-128, -128) scale(0.5) translate(-144, -144)" fill="#000"><path xmlns="http://www.w3.org/2000/svg" d="m561.22 208.55h-40.305v40.305H480.61V208.55h-40.305v40.305h-80.609V208.55h-40.305v40.305h-40.305V208.55h-40.305v40.305h-40.305v362.74h403.05v-362.74h-40.305zM299.24 530.99h-40.305v-40.305h40.305zm0-80.609h-40.305v-40.305h40.305zm80.609 80.609h-40.305v-40.305h40.305zm0-80.609h-40.305v-40.305h40.305zm0-80.609h-40.305v-40.305h40.305zm80.609 161.22h-40.305v-40.305h40.305zm0-80.609h-40.305v-40.305h40.305zm0-80.609h-40.305v-40.305h40.305zm80.609 80.609h-40.305v-40.305h40.305zm0-80.609h-40.305v-40.305h40.305z" fill="#ffffff" id="svg-el-0"/></g></svg>