<svg xmlns="http://www.w3.org/2000/svg" width="400" height="400" viewBox="0 0 400 400"><g transform="translate(200, 200) translate(-128, -128) scale(0.5) translate(-144, -144)" fill="#000"><g xmlns="http://www.w3.org/2000/svg" fill="#2a4dd0" paint-order="fill stroke" stroke="#2a4dd0" stroke-width="3" stroke-linejoin="round" stroke-linecap="round"><path d="m454.19 624.42c17.555.0 32.691-12.285 36.867-28.934 4.0117 1.4258 8.1367 2.1484 12.312 2.1484 20.883.0 37.906-16.863 38.16-37.691 19.734-1.4531 35.344-17.969 35.344-38.062.0-3.7422-.5625-7.4453-1.6836-11.062 13.828-5.9531 23.125-19.684 23.125-34.922.0-7.168-2.1211-14.238-6.043-20.359 10.258-7.082 16.438-18.621 16.438-31.219.0-10.242-4.2188-20.055-11.5-27.191 7.2812-7.1328 11.5-16.945 11.5-27.191.0-12.887-6.4375-24.637-17.078-31.668 2.5508-5.2031 3.8828-10.898 3.8828-16.715.0-16.703-10.703-31.078-26.172-36.145 1.668-4.3164 2.5156-8.7812 2.5156-13.336.0-20.625-16.441-37.48-36.91-38.148-.66797-20.469-17.52-36.91-38.145-36.91-3.9219.0-7.8086.63672-11.609 1.8867-5.8945-13.953-19.648-23.328-35.02-23.328-21.047.0-38.172 17.121-38.172 38.219l4.0117 372.49c.015625 21.035 17.133 38.141 38.176 38.141zm-4.0156-439.69c12.008.0 22.633 7.6016 26.879 18.738-5.2148 4.7773-15.57 16.902-11.355 35.191.48828 2.1211 2.375 3.5508 4.4609 3.5508.33984.0.6875-.035156 1.0352-.11719 2.4648-.56641 4.0039-3.0273 3.4336-5.4922-3.7773-16.367 8.1328-26.156 10.082-27.633 3.9453-1.832 8.0117-2.793 12.098-2.793 15.996.0 29.004 13.016 29.004 29.012.0.67969-.10156 1.3359-.19141 1.9961l-.14844 1.1523c-.16016 1.3867.32031 2.7656 1.3047 3.7539.98437.98438 2.3359 1.4609 3.7422 1.3203l1.2227-.15625c.64453-.085937 1.2852-.1875 1.9492-.1875 15.996.0 29.004 13.016 29.004 29.012.0 4.6016-1.2539 9.1016-3.5547 13.422-4.9648 3.4141-31.086 19.996-56.016 9.4961-2.3164-.97656-5.0156.11328-5.9961 2.4453-.98047 2.332.11328 5.0156 2.4453 5.9961 7.1758 3.0195 14.34 4.2031 21.16 4.2031 20.375.0 37.559-10.492 42.988-14.18 13.188 2.9727 22.629 14.469 22.629 28.094.0 5.6367-1.6562 11.129-4.7812 15.887-.71875 1.0898-.93359 2.4414-.59375 3.707.34375 1.2656 1.2109 2.3242 2.3828 2.9062 9.9844 4.9648 16.188 14.879 16.188 25.879.0 8.3281-3.832 16.156-10.121 21.652-10.117-5.0391-43.941-19.02-68.117 5.1719-1.7891 1.7891-1.7891 4.6875.0 6.4766.89844.89453 2.0703 1.3398 3.2422 1.3398s2.3438-.44922 3.2383-1.3438c22.949-22.941 56.801-4.0312 59.742-2.3203 7.6328 5.5547 12.023 14.07 12.023 23.398.0 10.918-6.1406 20.797-16.031 25.789-1.2539.63672-2.1484 1.8086-2.4258 3.1836-.27734 1.3789.09375 2.8086 1.0078 3.8789 4.6172 5.4023 7.0547 11.879 7.0547 18.727.0 12.824-8.6953 24.246-21.148 27.777-.089843.027343-.15625.097656-.24219.12891-.10156.035156-.21094.023437-.3125.066406-.23828.089844-22.855 9.6172-38.52 1.4102-7.2188-3.7734-11.957-10.992-14.09-21.453-.50391-2.4805-2.918-4.0742-5.4023-3.5703-2.4766.50391-4.0742 2.9219-3.5703 5.4023 2.707 13.285 9.0352 22.613 18.812 27.734 6.1914 3.2422 13.02 4.3594 19.492 4.3594 9.043.0 17.32-2.168 22.246-3.7812.76172 2.6016 1.2891 5.2344 1.2891 7.9062.0 15.949-12.941 28.934-29.516 28.934h-.13672l-1.2227-.13672c-1.3477-.0625-2.7031.4375-3.6445 1.4297-.93359.99609-1.3828 2.3633-1.207 3.7227.003906.011719.12891.9375.12891.95703.125.88281.25781 1.7617.25781 2.6797.0 15.996-13.012 29.012-29.004 29.012-4.0234.0-7.9844-1.082-11.852-2.8711-1.6133-8.7305-6.168-40.703 11.859-49.566 2.2695-1.1172 3.2031-3.8594 2.0898-6.1328-1.1055-2.2617-3.8516-3.1875-6.1328-2.0898-25.621 12.602-17.938 54.375-16.484 61.234-1.4375 14.738-13.902 26.219-28.66 26.219-15.996.0-29.012-13.012-29.012-29.004v-.050781l-4.0117-372.46c0-15.996 13.016-29.012 29.008-29.012z" fill="#2a4dd0" paint-order="fill stroke" stroke="#2a4dd0" stroke-width="3" stroke-linejoin="round" stroke-linecap="round" id="svg-el-0"/><path d="m207.72 455.54c-3.9258 6.1172-6.043 13.188-6.043 20.359.0 15.238 9.293 28.965 23.125 34.922-1.1172 3.6055-1.6836 7.3125-1.6836 11.062.0 20.09 15.609 36.609 35.34 38.062.25391 20.828 17.277 37.691 38.164 37.691 4.1758.0 8.2969-.71875 12.312-2.1523 4.1797 16.656 19.312 28.941 36.875 28.941 21.035.0 38.152-17.109 38.164-38.141l4.0117-372.54c0-21.047-17.121-38.168-38.164-38.168-15.367.0-29.121 9.375-35.023 23.328-3.8008-1.2539-7.6875-1.8867-11.609-1.8867-20.625.0-37.477 16.441-38.145 36.91-20.469.66797-36.91 17.523-36.91 38.148.0 4.5625.84375 9.0273 2.5156 13.336-15.465 5.0664-26.172 19.449-26.172 36.145.0 5.8203 1.332 11.516 3.8828 16.715-10.641 7.0312-17.078 18.777-17.078 31.668.0 10.242 4.2188 20.055 11.496 27.191-7.2773 7.1328-11.496 16.945-11.496 27.188.0 12.602 6.1836 24.141 16.438 31.219zm70.965-58.773c-24.188-24.191-58.012-10.211-68.125-5.1719-6.2891-5.4922-10.117-13.32-10.117-21.652.0-11.004 6.2031-20.918 16.188-25.879 1.1719-.58203 2.0391-1.6406 2.3828-2.9062.33984-1.2656.12109-2.6172-.59766-3.7109-3.125-4.75-4.7773-10.242-4.7773-15.883.0-13.625 9.4414-25.125 22.629-28.094 5.4258 3.6914 22.609 14.18 42.988 14.18 6.8164.0 13.984-1.1836 21.16-4.2031 2.3359-.98438 3.4258-3.668 2.4453-5.9961-.98438-2.3359-3.6797-3.4219-5.9961-2.4453-24.914 10.5-51.039-6.0703-56.012-9.4922-2.3008-4.3086-3.5586-8.8125-3.5586-13.426.0-15.996 13.012-29.012 29.004-29.012.66797.0 1.3008.10156 1.9414.1875l1.2266.15625c1.4219.16406 2.7578-.33203 3.7383-1.3164.98438-.98438 1.4688-2.3555 1.3164-3.7383l-.15234-1.1992c-.089844-.64844-.1875-1.293-.1875-1.9688.0-15.996 13.012-29.012 29.004-29.012 4.0859.0 8.1484.96094 12.098 2.793 1.7891 1.3633 13.863 11.254 10.078 27.637-.56641 2.4648.96875 4.9258 3.4336 5.4922.34375.082032.69141.11719 1.0352.11719 2.0859.0 3.9688-1.4297 4.4609-3.5508 4.2188-18.289-6.1367-30.414-11.352-35.191 4.2461-11.141 14.871-18.742 26.883-18.742 15.996.0 29.004 13.016 29.004 28.961l-4.0117 372.51v.050781c0 15.992-13.012 29.004-29.004 29.004-14.762.0-27.23-11.477-28.664-26.211 1.4531-6.8594 9.1367-48.637-16.484-61.234-2.2539-1.1016-5.0078-.17578-6.1328 2.0898-1.1133 2.2734-.17969 5.0156 2.0898 6.1328 18.02 8.8633 13.473 40.832 11.859 49.566-3.8672 1.793-7.8281 2.875-11.852 2.875-15.996.0-29.012-13.016-29.012-29.012.0-.89453.13281-1.75.25-2.6133l.13672-1.0391c.17188-1.3594-.27734-2.7188-1.2148-3.7109-.9375-.99609-2.3008-1.4883-3.6367-1.4258-.10547.007812-1.7578.19531-1.8633.21094-15.996.0-29.004-13.012-29.004-29.004.0-2.6758.52734-5.3086 1.2852-7.9062 4.9297 1.6133 13.207 3.7812 22.246 3.7812 6.4727.0 13.301-1.1172 19.496-4.3594 9.7734-5.1172 16.105-14.453 18.812-27.734.50391-2.4805-1.0898-4.8984-3.5703-5.4023-2.457-.5-4.8984 1.0977-5.4023 3.5703-2.1328 10.445-6.8594 17.66-14.062 21.441-15.613 8.1836-38.324-1.3047-38.551-1.4062-.10156-.042969-.20703-.027344-.30859-.0625-.089844-.03125-.15234-.10547-.24219-.12891-12.453-3.5273-21.148-14.953-21.148-27.777.0-6.8516 2.4375-13.328 7.0547-18.727.91406-1.0703 1.2852-2.4961 1.0078-3.8789-.27734-1.3789-1.1719-2.5508-2.4258-3.1836-9.8906-4.9922-16.031-14.871-16.031-25.789.0-9.3281 4.3867-17.844 12.02-23.398 2.9492-1.7188 36.781-20.625 59.746 2.3203.89453.88672 2.0664 1.332 3.2383 1.332s2.3438-.44922 3.2383-1.3438c1.7891-1.7852 1.7891-4.6836.0-6.4727z" fill="#2a4dd0" paint-order="fill stroke" stroke="#2a4dd0" stroke-width="3" stroke-linejoin="round" stroke-linecap="round" id="svg-el-1"/></g></g></svg>