<svg xmlns="http://www.w3.org/2000/svg" width="400" height="400" viewBox="0 0 400 400"><g transform="translate(200, 200) translate(-128, -128) scale(0.5) translate(-144, -144)" fill="#000"><g xmlns="http://www.w3.org/2000/svg" fill="#2A4dd0"><path d="m546.8 613.99V382.2h-24.375V205.07h-57.148v-30.258h-130.57v30.258h-57.145V382.2h-24.375v231.79h-40.355v11.195h374.32V613.99zM345.9 186.01h108.18v19.062H345.9zm-57.145 30.258h222.47v165.94h-18.438v-39.285h-185.6v39.285h-18.434zm-24.379 177.13h54.004v-39.285h163.21v39.285h54.004v220.59H482.91v-176.94H317.07v176.93h-52.684l.003906-220.59zm141.21 54.848h66.129v165.74h-66.129zm-11.195 165.74h-66.137v-165.74h66.137z" fill="#2A4dd0" id="svg-el-0"/><path d="m465.27 232.57H334.73v38.934h130.54zm-11.195 27.738h-108.15v-16.543h108.15z" fill="#2A4dd0" id="svg-el-1"/><path d="m465.27 288.04H334.73v38.934h130.54zm-11.195 27.738h-108.15v-16.539h108.15z" fill="#2A4dd0" id="svg-el-2"/></g></g></svg>