<svg xmlns="http://www.w3.org/2000/svg" width="400" height="400" viewBox="0 0 400 400"><g transform="translate(200, 200) translate(-128, -128) scale(0.5) translate(-144, -144)" fill="#000"><g xmlns="http://www.w3.org/2000/svg" fill="#2A4dd0"><path d="m198.48 505.8h20.152v25.191h35.266V505.8h292.21v25.191h35.266V505.8h20.152c16.625.0 30.23-13.602 30.23-30.23l-.003906-125.95c0-15.113-11.082-27.207-25.191-29.727v-20.652c0-16.625-13.602-30.23-30.23-30.23h-352.66c-16.625.0-30.23 13.602-30.23 30.23v20.656c-14.105 2.5156-25.188 14.609-25.188 29.723v125.95c0 16.625 13.602 30.227 30.23 30.227zm45.34 15.117h-15.113v-15.113h15.113zm327.48.0h-15.113v-15.113H571.3zm-367.78-221.68c0-11.082 9.0703-20.152 20.152-20.152h352.67c11.082.0 20.152 9.0703 20.152 20.152v20.656c-14.105 2.5195-25.191 14.609-25.191 29.727v52.898c-5.543-5.0391-12.594-7.5586-20.152-7.5586h-302.29c-7.5586.0-14.609 3.0234-20.152 7.5586v-52.902c0-15.113-11.082-27.207-25.191-29.727zm367.78 125.95c0 11.082-9.0703 20.152-20.152 20.152h-302.29c-11.082.0-20.152-9.0703-20.152-20.152s9.0703-20.152 20.152-20.152h302.29c11.086.0 20.152 9.0703 20.152 20.152zm-392.97-75.57c0-11.082 9.0703-20.152 20.152-20.152 11.082.0 20.152 9.0703 20.152 20.152v75.57c0 16.625 13.602 30.23 30.23 30.23h302.29c16.625.0 30.23-13.602 30.23-30.23l-.003906-75.57c0-11.082 9.0703-20.152 20.152-20.152 11.082.0 20.152 9.0703 20.152 20.152v125.95c0 11.082-9.0703 20.152-20.152 20.152h-403.05c-11.082.0-20.152-9.0703-20.152-20.152z" fill="#2A4dd0" id="svg-el-0"/><path d="m394.96 299.24h10.078v75.57H394.96z" fill="#2A4dd0" id="svg-el-1"/></g></g></svg>