<svg xmlns="http://www.w3.org/2000/svg" width="400" height="400" viewBox="0 0 400 400"><defs xmlns="http://www.w3.org/2000/svg"><clipPath id="a"><path d="m148.09 206H651.9v388H148.09z"/></clipPath></defs><g transform="translate(200, 200) translate(-128, -128) scale(0.5) translate(-144, -144)"><g xmlns="http://www.w3.org/2000/svg" clip-path="url(#a)" fill="#2A4dd0"><path d="m4e2 593.12c-2.418.0-4.7188-1.043-6.3047-2.8555l-243.51-277.09c-2.8203-3.2148-2.7891-8.0273.09375-11.191l83.969-92.363c1.582-1.75 3.8398-2.75 6.207-2.75h319.08c2.3672.0 4.6172 1 6.2148 2.7461l83.969 92.363c2.8789 3.1641 2.9219 7.9766.09375 11.191l-243.51 277.09c-1.5781 1.8203-3.8867 2.8594-6.3047 2.8594zM167.75 307.73 4e2 572l232.25-264.29-76.41-84.055H244.18z" fill="#2A4dd0" id="svg-el-1"/></g><path xmlns="http://www.w3.org/2000/svg" d="m156.49 299.24h487.02v16.793H156.49z" fill="#2A4dd0" id="svg-el-2"/><path xmlns="http://www.w3.org/2000/svg" d="m4e2 593.12c-3.3516.0-6.3828-1.9883-7.707-5.0703l-159.54-369.46 15.418-6.6602 151.83 351.62 151.83-351.62 15.418 6.6602-159.54 369.46c-1.3281 3.0742-4.3594 5.0625-7.707 5.0625z" fill="#2A4dd0" id="svg-el-3"/></g></svg>