<svg xmlns="http://www.w3.org/2000/svg" width="400" height="400" viewBox="0 0 400 400"><g transform="translate(200, 200) translate(-128, -128) scale(0.5) translate(-144, -144)" fill="#000"><path xmlns="http://www.w3.org/2000/svg" d="m222.46 461.77c0-23.547 4.5938-46.027 12.93-66.605 33.004-83.258 81.102-158.94 140.72-223.77 5.8633-6.5625 14.387-10.711 23.891-10.711 9.4922.0 18.027 4.1445 23.879 10.711 59.621 64.832 107.72 140.51 140.73 223.77 8.332 20.574 12.918 43.055 12.918 66.605.0 98.031-79.508 177.54-177.53 177.54-98.031.0-177.54-79.508-177.54-177.54zm226.92-63.184c-.039062.15234-.089844.30859-.125.46875-6.1445 25.348-3.7852 50.992 4.1602 75.723 7.6133 23.688 28.844 49.141 56.855 43.41 19.113-3.9102 30.586-24.465 33.293-41.992 3.3672-21.773.71484-44.777-6.3945-65.562-6.2109-18.176-15.395-37.363-28.445-51.691-6.4336-7.0703-15.16-12.43-24.957-9.6172-19.133 5.4883-29.926 31.988-34.387 49.262z" fill="#2a4dd0" id="svg-el-0"/></g></svg>