<svg xmlns="http://www.w3.org/2000/svg" width="400" height="400" viewBox="0 0 400 400"><g transform="translate(200, 200) translate(-128, -128) scale(0.5) translate(-144, -144)" fill="#000"><g xmlns="http://www.w3.org/2000/svg" fill="#2a4dd0" paint-order="fill stroke" stroke="#2a4dd0" stroke-width="3" stroke-linejoin="round" stroke-linecap="round"><path d="m563.21 356.27c15.84-20.82 20.109-41.801 11.32-57.031-8.8008-15.23-29.094-22.004-55.051-18.715 3.3125-25.949-3.4844-46.25-18.715-55.051-15.227-8.7969-36.207-4.5273-57.031 11.32-10.109-24.133-26.137-38.316-43.73-38.316s-33.625 14.184-43.73 38.316c-20.82-15.848-41.789-20.109-57.031-11.32-15.23 8.8008-22.027 29.102-18.715 55.051-25.957-3.2812-46.25 3.4805-55.051 18.715-8.793 15.23-4.5234 36.211 11.32 57.031-24.133 10.105-38.316 26.137-38.316 43.73s14.184 33.625 38.316 43.73c-15.844 20.82-20.113 41.797-11.32 57.031 8.8008 15.23 29.086 22.004 55.051 18.715-3.3125 25.949 3.4805 46.246 18.715 55.051 15.227 8.7969 36.207 4.5312 57.031-11.32 10.105 24.133 26.137 38.316 43.73 38.316s33.625-14.184 43.73-38.316c20.824 15.84 41.789 20.105 57.031 11.32 15.23-8.8008 22.027-29.102 18.715-55.051 25.969 3.2969 46.246-3.4805 55.051-18.715 8.793-15.23 4.5234-36.211-11.32-57.031 24.133-10.109 38.316-26.137 38.316-43.73s-14.184-33.625-38.316-43.73zm-9.9453 80.48c-1.5742.55078-2.7734 1.8438-3.207 3.4531-.43359 1.6094-.039063 3.332 1.0469 4.5898 16.289 18.902 21.918 38.414 14.695 50.926s-26.922 17.406-51.449 12.738c-1.6641-.31641-3.3242.21094-4.5 1.3867-1.1797 1.1797-1.6992 2.8633-1.3867 4.5 4.6523 24.512-.22656 44.227-12.738 51.453-12.508 7.2383-32.023 1.5938-50.926-14.695-1.2695-1.0938-3-1.4922-4.5898-1.0469-1.6094.43359-2.9023 1.6328-3.4531 3.207-8.2227 23.551-22.305 38.184-36.754 38.184s-28.531-14.633-36.754-38.184c-.55078-1.5742-1.8438-2.7734-3.4531-3.207-.42969-.11719-.86719-.17188-1.3047-.17188-1.1914.0-2.3633.42188-3.2852 1.2188-18.898 16.289-38.414 21.934-50.926 14.695-12.512-7.2266-17.391-26.941-12.738-51.449.30859-1.6367-.20703-3.3203-1.3867-4.5-1.1758-1.1797-2.8438-1.7031-4.5-1.3867-24.512 4.6641-44.227-.22656-51.453-12.738-7.2227-12.512-1.5938-32.023 14.695-50.926 1.0859-1.2578 1.4805-2.9805 1.0469-4.5898s-1.6328-2.9023-3.207-3.4531c-23.551-8.2227-38.184-22.305-38.184-36.754s14.633-28.531 38.184-36.754c1.5742-.55078 2.7734-1.8438 3.207-3.4531s.039063-3.332-1.0469-4.5898c-16.289-18.902-21.918-38.414-14.695-50.926 7.2266-12.508 26.938-17.387 51.449-12.738 1.6641.30859 3.3242-.20703 4.5-1.3867 1.1797-1.1797 1.6992-2.8633 1.3867-4.5-4.6523-24.512.22656-44.227 12.738-51.453 12.512-7.2227 32.031-1.5859 50.926 14.695 1.2656 1.0859 2.9922 1.4805 4.5898 1.0469 1.6094-.43359 2.9023-1.6328 3.4531-3.207 8.2266-23.551 22.305-38.184 36.758-38.184 14.449.0 28.531 14.633 36.754 38.184.55078 1.5742 1.8438 2.7734 3.4531 3.207 1.5898.43359 3.3203.039063 4.5898-1.0469 18.902-16.281 38.418-21.918 50.926-14.695 12.512 7.2266 17.391 26.941 12.738 51.449-.30859 1.6367.20703 3.3203 1.3867 4.5 1.1758 1.1797 2.832 1.6914 4.5 1.3867 24.52-4.6523 44.227.23438 51.449 12.738 7.2227 12.512 1.5938 32.023-14.695 50.926-1.0859 1.2578-1.4805 2.9805-1.0469 4.5898.43359 1.6094 1.6328 2.9023 3.207 3.4531 23.551 8.2266 38.184 22.305 38.184 36.758.0 14.449-14.633 28.531-38.184 36.75z" fill="#2a4dd0" paint-order="fill stroke" stroke="#2a4dd0" stroke-width="3" stroke-linejoin="round" stroke-linecap="round" id="svg-el-0"/><path d="m477.43 4e2c0-42.691-34.734-77.426-77.426-77.426-42.691-.003907-77.43 34.734-77.43 77.426s34.738 77.426 77.43 77.426S477.43 442.692 477.43 4e2zm-77.426 67.348c-37.137.0-67.352-30.215-67.352-67.352.0-37.133 30.215-67.348 67.352-67.348s67.348 30.215 67.348 67.352-30.211 67.348-67.348 67.348z" fill="#2a4dd0" paint-order="fill stroke" stroke="#2a4dd0" stroke-width="3" stroke-linejoin="round" stroke-linecap="round" id="svg-el-1"/><path d="m4e2 291.69c2.7852.0 5.0391-2.2539 5.0391-5.0391v-33.094c0-2.7852-2.2539-5.0391-5.0391-5.0391s-5.0391 2.2539-5.0391 5.0391v33.094c0 2.7891 2.2539 5.0391 5.0391 5.0391z" fill="#2a4dd0" paint-order="fill stroke" stroke="#2a4dd0" stroke-width="3" stroke-linejoin="round" stroke-linecap="round" id="svg-el-2"/><path d="m338.96 304.35c.93359 1.6172 2.6289 2.5195 4.3672 2.5195.85547.0 1.7227-.21484 2.5156-.67578 2.4102-1.3906 3.2383-4.4727 1.8438-6.8828l-16.547-28.652c-1.3906-2.4219-4.4805-3.2344-6.8828-1.8438-2.4102 1.3906-3.2383 4.4727-1.8438 6.8828z" fill="#2a4dd0" paint-order="fill stroke" stroke="#2a4dd0" stroke-width="3" stroke-linejoin="round" stroke-linecap="round" id="svg-el-3"/><path d="m304.35 338.96-28.652-16.547c-2.4062-1.3906-5.4922-.57422-6.8828 1.8438-1.3906 2.4102-.56641 5.4922 1.8438 6.8828l28.652 16.547c.79297.45703 1.6562.67578 2.5156.67578 1.7422.0 3.4336-.89844 4.3672-2.5195 1.3945-2.4102.57031-5.4922-1.8438-6.8828z" fill="#2a4dd0" paint-order="fill stroke" stroke="#2a4dd0" stroke-width="3" stroke-linejoin="round" stroke-linecap="round" id="svg-el-4"/><path d="m291.69 4e2c0-2.7852-2.2539-5.0391-5.0391-5.0391h-33.094c-2.7852.0-5.0391 2.2539-5.0391 5.0391s2.2539 5.0391 5.0391 5.0391h33.094c2.7891-.003906 5.0391-2.2539 5.0391-5.0391z" fill="#2a4dd0" paint-order="fill stroke" stroke="#2a4dd0" stroke-width="3" stroke-linejoin="round" stroke-linecap="round" id="svg-el-5"/><path d="m299.32 452.31-28.652 16.547c-2.4102 1.3906-3.2383 4.4727-1.8438 6.8828.93359 1.6172 2.6289 2.5195 4.3672 2.5195.85547.0 1.7227-.21484 2.5156-.67578l28.652-16.547c2.4102-1.3906 3.2383-4.4727 1.8438-6.8828-1.3984-2.4141-4.4883-3.2422-6.8828-1.8438z" fill="#2a4dd0" paint-order="fill stroke" stroke="#2a4dd0" stroke-width="3" stroke-linejoin="round" stroke-linecap="round" id="svg-el-6"/><path d="m345.84 493.8c-2.4102-1.3867-5.4922-.57031-6.8828 1.8438l-16.547 28.652c-1.3906 2.4102-.56641 5.4922 1.8438 6.8828.79297.45703 1.6562.67578 2.5156.67578 1.7422.0 3.4336-.89844 4.3672-2.5195l16.547-28.652c1.3945-2.4102.56641-5.4883-1.8438-6.8828z" fill="#2a4dd0" paint-order="fill stroke" stroke="#2a4dd0" stroke-width="3" stroke-linejoin="round" stroke-linecap="round" id="svg-el-7"/><path d="m4e2 508.31c-2.7852.0-5.0391 2.2539-5.0391 5.0391v33.094c0 2.7852 2.2539 5.0391 5.0391 5.0391s5.0391-2.2539 5.0391-5.0391v-33.094c-.003906-2.7852-2.2539-5.0391-5.0391-5.0391z" fill="#2a4dd0" paint-order="fill stroke" stroke="#2a4dd0" stroke-width="3" stroke-linejoin="round" stroke-linecap="round" id="svg-el-8"/><path d="m461.04 495.64c-1.3984-2.4141-4.4805-3.2344-6.8828-1.8438-2.4102 1.3906-3.2383 4.4727-1.8438 6.8828l16.547 28.652c.93359 1.6172 2.6289 2.5195 4.3672 2.5195.85547.0 1.7227-.21484 2.5156-.67578 2.4102-1.3906 3.2383-4.4727 1.8438-6.8828z" fill="#2a4dd0" paint-order="fill stroke" stroke="#2a4dd0" stroke-width="3" stroke-linejoin="round" stroke-linecap="round" id="svg-el-9"/><path d="m529.34 468.86-28.652-16.547c-2.4062-1.3984-5.4922-.57031-6.8828 1.8438-1.3906 2.4102-.56641 5.4922 1.8438 6.8828l28.652 16.547c.79297.45703 1.6562.67578 2.5156.67578 1.7422.0 3.4336-.89844 4.3672-2.5195 1.3945-2.4102.56641-5.4922-1.8438-6.8828z" fill="#2a4dd0" paint-order="fill stroke" stroke="#2a4dd0" stroke-width="3" stroke-linejoin="round" stroke-linecap="round" id="svg-el-10"/><path d="m546.44 394.96h-33.094c-2.7852.0-5.0391 2.2539-5.0391 5.0391s2.2539 5.0391 5.0391 5.0391h33.094c2.7852.0 5.0391-2.2539 5.0391-5.0391s-2.2539-5.0391-5.0391-5.0391z" fill="#2a4dd0" paint-order="fill stroke" stroke="#2a4dd0" stroke-width="3" stroke-linejoin="round" stroke-linecap="round" id="svg-el-11"/><path d="m498.17 348.36c.85547.0 1.7227-.21484 2.5156-.67578l28.652-16.547c2.4102-1.3906 3.2383-4.4727 1.8438-6.8828-1.3984-2.4219-4.4883-3.2383-6.8828-1.8438l-28.652 16.547c-2.4102 1.3906-3.2383 4.4727-1.8438 6.8828.93359 1.6172 2.625 2.5195 4.3672 2.5195z" fill="#2a4dd0" paint-order="fill stroke" stroke="#2a4dd0" stroke-width="3" stroke-linejoin="round" stroke-linecap="round" id="svg-el-12"/><path d="m475.74 268.82c-2.4062-1.3867-5.4922-.57422-6.8828 1.8438l-16.547 28.652c-1.3906 2.4102-.56641 5.4922 1.8438 6.8828.79297.45703 1.6562.67578 2.5156.67578 1.7422.0 3.4336-.89844 4.3672-2.5195l16.547-28.652c1.3906-2.4102.56641-5.4922-1.8438-6.8828z" fill="#2a4dd0" paint-order="fill stroke" stroke="#2a4dd0" stroke-width="3" stroke-linejoin="round" stroke-linecap="round" id="svg-el-13"/></g></g></svg>