<svg xmlns="http://www.w3.org/2000/svg" width="400" height="400" viewBox="0 0 400 400"><g transform="translate(200, 200) translate(-128, -128) scale(0.5) translate(-144, -144)" fill="#000"><g xmlns="http://www.w3.org/2000/svg" fill="#ffffff"><path d="m4e2 231.36c2.7812.0 5.0391-2.2539 5.0391-5.0391l-.003906-22.812c0-2.7812-2.2539-5.0391-5.0391-5.0391-2.7812.0-5.0391 2.2539-5.0391 5.0391v22.812c.003907 2.7852 2.2578 5.0391 5.043 5.0391z" fill="#ffffff" id="svg-el-0"/><path d="m394.96 256.42c0 2.7812 2.2539 5.0391 5.0391 5.0391 2.7812.0 5.0391-2.2539 5.0391-5.0391v-15.539c0-2.7812-2.2539-5.0391-5.0391-5.0391-2.7812.0-5.0391 2.2539-5.0391 5.0391z" fill="#ffffff" id="svg-el-1"/><path d="m394.96 299.71c0 2.7812 2.2539 5.0391 5.0391 5.0391 2.7812.0 5.0391-2.2539 5.0391-5.0391v-6.7266c0-2.7812-2.2539-5.0391-5.0391-5.0391-2.7812.0-5.0391 2.2539-5.0391 5.0391z" fill="#ffffff" id="svg-el-2"/><path d="m354.01 208.91c-.72266-2.6875-3.4883-4.2891-6.168-3.5625-2.6875.72266-4.2812 3.4844-3.5625 6.168l5.9023 22.035c.60156 2.25 2.6367 3.7383 4.8633 3.7383.42969.0.87109-.054687 1.3047-.17578 2.6875-.72266 4.2812-3.4844 3.5625-6.168z" fill="#ffffff" id="svg-el-3"/><path d="m363.68 245c-.72266-2.6875-3.4883-4.2969-6.168-3.5625-2.6875.72266-4.2812 3.4844-3.5625 6.168l4.0234 15.008c.60156 2.25 2.6367 3.7383 4.8633 3.7383.42969.0.87109-.054687 1.3047-.17578 2.6875-.72266 4.2812-3.4844 3.5625-6.168z" fill="#ffffff" id="svg-el-4"/><path d="m371.48 274.07c-.72266-2.6875-3.4922-4.2812-6.168-3.5664-2.6875.72266-4.2852 3.4805-3.5664 6.168l1.168 4.3633c.60156 2.2539 2.6406 3.7383 4.8672 3.7383.42969.0.86719-.054688 1.3047-.17188 2.6875-.72266 4.2852-3.4805 3.5664-6.168z" fill="#ffffff" id="svg-el-5"/><path d="m376.41 292.49c-.72266-2.6875-3.4844-4.293-6.168-3.5625-2.6875.72266-4.2812 3.4844-3.5625 6.168l1.168 4.3594c.60156 2.25 2.6406 3.7383 4.8633 3.7383.42969.0.87109-.054687 1.3047-.17578 2.6875-.72266 4.2812-3.4844 3.5625-6.168z" fill="#ffffff" id="svg-el-6"/><path d="m306.12 227.32c-1.3945-2.4102-4.4805-3.2344-6.8828-1.8438-2.4102 1.3906-3.2344 4.4766-1.8438 6.8828l11.406 19.758c.93359 1.6172 2.6289 2.5195 4.3672 2.5195.85547.0 1.7227-.21484 2.5156-.67578 2.4102-1.3906 3.2344-4.4766 1.8438-6.8828z" fill="#ffffff" id="svg-el-7"/><path d="m324.8 259.68c-1.3945-2.4102-4.4805-3.2383-6.8828-1.8438-2.4102 1.3906-3.2344 4.4766-1.8438 6.8828l7.7695 13.453c.93359 1.6172 2.6289 2.5195 4.3672 2.5195.85547.0 1.7227-.21484 2.5156-.67578 2.4102-1.3906 3.2344-4.4766 1.8438-6.8828z" fill="#ffffff" id="svg-el-8"/><path d="m350.85 304.8c-1.3906-2.4141-4.4766-3.2461-6.8789-1.8438-2.4102 1.3906-3.2344 4.4727-1.8438 6.8789l3.3672 5.8242c.93359 1.6172 2.625 2.5195 4.3672 2.5195.85547.0 1.7227-.21484 2.5156-.67578 2.4102-1.3906 3.2344-4.4727 1.8438-6.8789z" fill="#ffffff" id="svg-el-9"/><path d="m264.62 257.5c-1.9688-1.9688-5.1562-1.9688-7.125.0s-1.9688 5.1562.0 7.125l16.129 16.129c.98438.98438 2.2734 1.4766 3.5625 1.4766s2.5781-.49219 3.5625-1.4766c1.9688-1.9688 1.9688-5.1562.0-7.125z" fill="#ffffff" id="svg-el-10"/><path d="m283.93 283.93c-1.9688 1.9688-1.9688 5.1562.0 7.125l10.988 10.988c.98438.98438 2.2734 1.4766 3.5625 1.4766s2.5781-.49219 3.5625-1.4766c1.9688-1.9688 1.9688-5.1562.0-7.125l-10.988-10.988c-1.9688-1.9688-5.1562-1.9688-7.125.0z" fill="#ffffff" id="svg-el-11"/><path d="m308.39 315.52c.98438.98438 2.2734 1.4766 3.5625 1.4766s2.5781-.49219 3.5625-1.4766c1.9688-1.9688 1.9688-5.1562.0-7.125l-3.1914-3.1914c-1.9688-1.9688-5.1562-1.9688-7.125.0s-1.9688 5.1562.0 7.125z" fill="#ffffff" id="svg-el-12"/><path d="m325.82 318.69c-1.9688-1.9688-5.1562-1.9688-7.125.0s-1.9688 5.1562.0 7.125l3.1914 3.1914c.98438.98438 2.2734 1.4766 3.5625 1.4766s2.5781-.49219 3.5625-1.4766c1.9688-1.9688 1.9688-5.1562.0-7.125z" fill="#ffffff" id="svg-el-13"/><path d="m252.11 308.8-19.758-11.406c-2.4102-1.3945-5.4883-.56641-6.8828 1.8477-1.3906 2.4102-.56641 5.4922 1.8438 6.8828l19.758 11.406c.79297.45703 1.6602.67578 2.5156.67578 1.7422.0 3.4336-.90234 4.3672-2.5195 1.3906-2.4102.56641-5.4922-1.8438-6.8867z" fill="#ffffff" id="svg-el-14"/><path d="m275.65 333.25c1.7422.0 3.4336-.90234 4.3672-2.5195 1.3906-2.4102.56641-5.4922-1.8438-6.8828l-13.453-7.7695c-2.4141-1.3984-5.4922-.5625-6.8828 1.8438-1.3906 2.4102-.56641 5.4922 1.8438 6.8828l13.453 7.7695c.79688.46094 1.6641.67578 2.5156.67578z" fill="#ffffff" id="svg-el-15"/><path d="m304.8 350.85 5.8242 3.3672c.79297.46094 1.6562.67578 2.5156.67578 1.7422.0 3.4336-.90234 4.3672-2.5195 1.3906-2.4102.56641-5.4922-1.8438-6.8789l-5.8242-3.3672c-2.4102-1.3984-5.4922-.57031-6.8789 1.8438-1.3945 2.4062-.57031 5.4883 1.8398 6.8789z" fill="#ffffff" id="svg-el-16"/><path d="m205.34 347.84c-.72266 2.6875.875 5.4492 3.5625 6.168l22.035 5.9023c.4375.11719.875.17578 1.3047.17578 2.2227.0 4.2617-1.4844 4.8633-3.7383.72266-2.6875-.875-5.4492-3.5625-6.168l-22.035-5.9023c-2.6992-.73047-5.4492.87891-6.168 3.5625z" fill="#ffffff" id="svg-el-17"/><path d="m241.44 357.51c-.72266 2.6875.875 5.4492 3.5625 6.168l15.008 4.0234c.43359.11719.875.17578 1.3047.17578 2.2227.0 4.2617-1.4844 4.8633-3.7383.72266-2.6875-.875-5.4492-3.5625-6.168l-15.008-4.0234c-2.6797-.72266-5.4453.875-6.168 3.5625z" fill="#ffffff" id="svg-el-18"/><path d="m276.67 361.74c-2.6953-.72266-5.4531.87891-6.168 3.5664-.71875 2.6875.87891 5.4492 3.5664 6.168l4.3633 1.168c.43359.11719.875.16797 1.3047.16797 2.2266.0 4.2617-1.4844 4.8672-3.7383.71875-2.6875-.87891-5.4492-3.5664-6.168z" fill="#ffffff" id="svg-el-19"/><path d="m299.46 367.84-4.3594-1.168c-2.6797-.72266-5.4492.875-6.168 3.5625-.72266 2.6875.875 5.4492 3.5625 6.168l4.3594 1.168c.43359.11719.875.17578 1.3047.17578 2.2227.0 4.2617-1.4844 4.8633-3.7383.72266-2.6836-.87109-5.4453-3.5625-6.168z" fill="#ffffff" id="svg-el-20"/><path d="m198.48 4e2c0 2.7812 2.2539 5.0391 5.0391 5.0391h22.812c2.7812.0 5.0391-2.2539 5.0391-5.0391.0-2.7812-2.2539-5.0391-5.0391-5.0391h-22.816c-2.7812.0-5.0352 2.2539-5.0352 5.0391z" fill="#ffffff" id="svg-el-21"/><path d="m240.88 405.04h15.539c2.7812.0 5.0391-2.2539 5.0391-5.0391.0-2.7812-2.2539-5.0391-5.0391-5.0391H240.88c-2.7812.0-5.0391 2.2539-5.0391 5.0391s2.2578 5.0391 5.0391 5.0391z" fill="#ffffff" id="svg-el-22"/><path d="m292.98 405.04h6.7266c2.7812.0 5.0391-2.2539 5.0391-5.0391.0-2.7812-2.2539-5.0391-5.0391-5.0391H292.98c-2.7812.0-5.0391 2.2539-5.0391 5.0391s2.2578 5.0391 5.0391 5.0391z" fill="#ffffff" id="svg-el-23"/><path d="m230.94 440.08-22.035 5.9023c-2.6875.72266-4.2812 3.4844-3.5625 6.168.60156 2.25 2.6367 3.7383 4.8633 3.7383.42969.0.87109-.054687 1.3047-.17578l22.035-5.9023c2.6875-.72266 4.2812-3.4844 3.5625-6.168-.71875-2.6875-3.4805-4.2891-6.168-3.5625z" fill="#ffffff" id="svg-el-24"/><path d="m266.18 435.86c-.71875-2.6875-3.4805-4.2891-6.168-3.5625l-15.008 4.0234c-2.6875.72266-4.2812 3.4844-3.5625 6.168.60156 2.25 2.6367 3.7383 4.8633 3.7383.42969.0.87109-.054687 1.3047-.17578l15.008-4.0234c2.6875-.71875 4.2812-3.4805 3.5625-6.168z" fill="#ffffff" id="svg-el-25"/><path d="m284.6 430.92c-.72266-2.6875-3.4922-4.2891-6.168-3.5664l-4.3633 1.168c-2.6875.72266-4.2852 3.4805-3.5664 6.168.60156 2.2539 2.6406 3.7383 4.8672 3.7383.42969.0.86719-.054688 1.3047-.16797l4.3633-1.168c2.6836-.72266 4.2812-3.4805 3.5625-6.1719z" fill="#ffffff" id="svg-el-26"/><path d="m303.02 425.98c-.71875-2.6875-3.4766-4.293-6.168-3.5625l-4.3594 1.168c-2.6875.72266-4.2812 3.4844-3.5625 6.168.60156 2.25 2.6406 3.7383 4.8633 3.7383.42969.0.87109-.054688 1.3047-.17578l4.3594-1.168c2.6914-.71875 4.2852-3.4844 3.5625-6.168z" fill="#ffffff" id="svg-el-27"/><path d="m229.84 503.28c.85547.0 1.7227-.21484 2.5156-.67578l19.758-11.406c2.4102-1.3906 3.2344-4.4766 1.8438-6.8828-1.3984-2.4102-4.4766-3.2383-6.8828-1.8438l-19.758 11.406c-2.4141 1.3906-3.2383 4.4727-1.8477 6.8828.93359 1.6133 2.6289 2.5195 4.3711 2.5195z" fill="#ffffff" id="svg-el-28"/><path d="m257.84 482.08c.93359 1.6172 2.6289 2.5195 4.3672 2.5195.85547.0 1.7227-.21484 2.5156-.67578l13.453-7.7695c2.4102-1.3906 3.2344-4.4766 1.8438-6.8828-1.3945-2.4102-4.4805-3.2422-6.8828-1.8438l-13.453 7.7695c-2.4102 1.3906-3.2344 4.4727-1.8438 6.8828z" fill="#ffffff" id="svg-el-29"/><path d="m317.5 447.62c-1.3906-2.4141-4.4766-3.2461-6.8789-1.8438l-5.8242 3.3672c-2.4102 1.3906-3.2344 4.4727-1.8438 6.8789.93359 1.6172 2.625 2.5195 4.3672 2.5195.85547.0 1.7227-.21484 2.5156-.67578l5.8242-3.3672c2.4102-1.3906 3.2344-4.4727 1.8398-6.8789z" fill="#ffffff" id="svg-el-30"/><path d="m261.06 543.97c1.2891.0 2.5781-.49219 3.5625-1.4766l16.129-16.129c1.9688-1.9688 1.9688-5.1562.0-7.125s-5.1562-1.9688-7.125.0l-16.129 16.129c-1.9688 1.9688-1.9688 5.1562.0 7.125.98438.98438 2.2734 1.4766 3.5625 1.4766z" fill="#ffffff" id="svg-el-31"/><path d="m287.49 517.55c1.2891.0 2.5781-.49219 3.5625-1.4766l10.988-10.988c1.9688-1.9688 1.9688-5.1562.0-7.125s-5.1562-1.9688-7.125.0l-10.988 10.992c-1.9688 1.9688-1.9688 5.1562.0 7.125.98438.98047 2.2734 1.4727 3.5625 1.4727z" fill="#ffffff" id="svg-el-32"/><path d="m308.39 484.48-3.1914 3.1914c-1.9688 1.9688-1.9688 5.1562.0 7.125.98438.98438 2.2734 1.4766 3.5625 1.4766s2.5781-.49219 3.5625-1.4766l3.1914-3.1914c1.9688-1.9688 1.9688-5.1562.0-7.125s-5.1562-1.9688-7.125.0z" fill="#ffffff" id="svg-el-33"/><path d="m322.25 482.78c1.2891.0 2.5781-.49219 3.5625-1.4766l3.1914-3.1914c1.9688-1.9688 1.9688-5.1562.0-7.125s-5.1562-1.9688-7.125.0l-3.1914 3.1914c-1.9688 1.9688-1.9688 5.1562.0 7.125.98438.98437 2.2734 1.4766 3.5625 1.4766z" fill="#ffffff" id="svg-el-34"/><path d="m299.24 574.52c.79297.45703 1.6602.67578 2.5156.67578 1.7422.0 3.4336-.90234 4.3672-2.5195l11.406-19.758c1.3906-2.4102.56641-5.4922-1.8438-6.8828-2.4102-1.3984-5.4922-.5625-6.8828 1.8438l-11.406 19.758c-1.3945 2.4102-.57031 5.4922 1.8438 6.8828z" fill="#ffffff" id="svg-el-35"/><path d="m324.8 540.32 7.7695-13.453c1.3906-2.4102.56641-5.4922-1.8438-6.8828-2.4141-1.3906-5.4922-.56641-6.8828 1.8438l-7.7695 13.453c-1.3906 2.4102-.56641 5.4922 1.8438 6.8828.79297.45703 1.6602.67578 2.5156.67578 1.7383-.003907 3.4297-.90625 4.3672-2.5195z" fill="#ffffff" id="svg-el-36"/><path d="m343.97 497.04c.79297.46094 1.6562.67578 2.5156.67578 1.7422.0 3.4336-.90234 4.3672-2.5195l3.3672-5.8242c1.3906-2.4102.56641-5.4922-1.8438-6.8789-2.4102-1.4023-5.4922-.56641-6.8789 1.8438l-3.3672 5.8242c-1.3945 2.4102-.57031 5.4922 1.8398 6.8789z" fill="#ffffff" id="svg-el-37"/><path d="m347.84 594.65c.4375.11719.875.17578 1.3047.17578 2.2227.0 4.2617-1.4844 4.8633-3.7383l5.9023-22.035c.72266-2.6875-.875-5.4492-3.5625-6.168-2.7031-.72656-5.4492.875-6.168 3.5625l-5.9023 22.035c-.71875 2.6875.875 5.4492 3.5625 6.168z" fill="#ffffff" id="svg-el-38"/><path d="m357.51 558.56c.43359.11719.875.17578 1.3047.17578 2.2227.0 4.2617-1.4844 4.8633-3.7383l4.0234-15.008c.72266-2.6875-.875-5.4492-3.5625-6.168-2.6875-.73047-5.4531.875-6.168 3.5625l-4.0234 15.008c-.71875 2.6836.875 5.4453 3.5625 6.168z" fill="#ffffff" id="svg-el-39"/><path d="m371.48 525.93 1.168-4.3633c.71875-2.6875-.87891-5.4492-3.5664-6.168-2.6875-.72266-5.4531.87891-6.168 3.5664l-1.168 4.3633c-.71875 2.6875.87891 5.4492 3.5664 6.168.43359.11719.875.17187 1.3047.17187 2.2227.0 4.2578-1.4883 4.8633-3.7383z" fill="#ffffff" id="svg-el-40"/><path d="m367.84 500.54-1.168 4.3594c-.72266 2.6875.875 5.4492 3.5625 6.168.43359.11719.875.17578 1.3047.17578 2.2227.0 4.2617-1.4844 4.8633-3.7383l1.168-4.3594c.72266-2.6875-.875-5.4492-3.5625-6.168-2.6758-.71875-5.4453.875-6.168 3.5625z" fill="#ffffff" id="svg-el-41"/><path d="m394.96 596.48c0 2.7812 2.2539 5.0391 5.0391 5.0391 2.7812.0 5.0391-2.2539 5.0391-5.0391v-22.812c0-2.7812-2.2539-5.0391-5.0391-5.0391-2.7812.0-5.0391 2.2539-5.0391 5.0391z" fill="#ffffff" id="svg-el-42"/><path d="m394.96 559.11c0 2.7812 2.2539 5.0391 5.0391 5.0391 2.7812.0 5.0391-2.2539 5.0391-5.0391v-15.539c0-2.7812-2.2539-5.0391-5.0391-5.0391-2.7812.0-5.0391 2.2539-5.0391 5.0391z" fill="#ffffff" id="svg-el-43"/><path d="m394.96 507.02c0 2.7812 2.2539 5.0391 5.0391 5.0391 2.7812.0 5.0391-2.2539 5.0391-5.0391v-6.7266c0-2.7812-2.2539-5.0391-5.0391-5.0391-2.7812.0-5.0391 2.2539-5.0391 5.0391z" fill="#ffffff" id="svg-el-44"/><path d="m445.98 591.09c.60156 2.25 2.6367 3.7383 4.8633 3.7383.42969.0.87109-.054687 1.3047-.17578 2.6875-.72266 4.2812-3.4844 3.5625-6.168l-5.9023-22.035c-.72266-2.6875-3.4922-4.2891-6.168-3.5625-2.6875.72266-4.2812 3.4844-3.5625 6.168z" fill="#ffffff" id="svg-el-45"/><path d="m436.32 555c.60156 2.25 2.6367 3.7383 4.8633 3.7383.42969.0.87109-.054687 1.3047-.17578 2.6875-.72266 4.2812-3.4844 3.5625-6.168l-4.0234-15.008c-.72266-2.6875-3.4922-4.293-6.168-3.5625-2.6875.72266-4.2812 3.4844-3.5625 6.168z" fill="#ffffff" id="svg-el-46"/><path d="m428.52 525.93c.60156 2.2539 2.6406 3.7383 4.8672 3.7383.42969.0.86719-.054687 1.3047-.17187 2.6875-.72266 4.2852-3.4805 3.5664-6.168l-1.168-4.3633c-.71875-2.6914-3.4805-4.2891-6.168-3.5664-2.6875.72266-4.2852 3.4805-3.5664 6.168z" fill="#ffffff" id="svg-el-47"/><path d="m425.98 496.98c-2.6875.72266-4.2812 3.4844-3.5625 6.168l1.168 4.3594c.60156 2.25 2.6406 3.7383 4.8633 3.7383.42969.0.87109-.054688 1.3047-.17578 2.6875-.72266 4.2812-3.4844 3.5625-6.168l-1.168-4.3594c-.71875-2.6875-3.4883-4.2852-6.168-3.5625z" fill="#ffffff" id="svg-el-48"/><path d="m493.88 572.68c.93359 1.6172 2.6289 2.5195 4.3672 2.5195.85547.0 1.7227-.21484 2.5156-.67578 2.4102-1.3906 3.2344-4.4766 1.8438-6.8828l-11.406-19.758c-1.3945-2.4102-4.4766-3.2422-6.8828-1.8438-2.4102 1.3906-3.2344 4.4766-1.8438 6.8828z" fill="#ffffff" id="svg-el-49"/><path d="m475.2 540.32c.93359 1.6172 2.6289 2.5195 4.3672 2.5195.85547.0 1.7227-.21484 2.5156-.67578 2.4102-1.3906 3.2344-4.4766 1.8438-6.8828l-7.7695-13.453c-1.3906-2.4102-4.4766-3.2383-6.8828-1.8438-2.4102 1.3906-3.2344 4.4766-1.8438 6.8828z" fill="#ffffff" id="svg-el-50"/><path d="m449.15 495.2c.93359 1.6172 2.625 2.5195 4.3672 2.5195.85547.0 1.7227-.21484 2.5156-.67578 2.4102-1.3906 3.2344-4.4727 1.8438-6.8789l-3.3672-5.8242c-1.3945-2.4102-4.4805-3.2461-6.8789-1.8438-2.4102 1.3906-3.2344 4.4727-1.8438 6.8789z" fill="#ffffff" id="svg-el-51"/><path d="m535.37 542.5c.98438.98438 2.2734 1.4766 3.5625 1.4766s2.5781-.49219 3.5625-1.4766c1.9688-1.9688 1.9688-5.1562.0-7.125l-16.129-16.129c-1.9688-1.9688-5.1562-1.9688-7.125.0s-1.9688 5.1562.0 7.125z" fill="#ffffff" id="svg-el-52"/><path d="m512.51 517.55c1.2891.0 2.5781-.49219 3.5625-1.4766 1.9688-1.9688 1.9688-5.1562.0-7.125l-10.988-10.988c-1.9688-1.9688-5.1562-1.9688-7.125.0s-1.9688 5.1562.0 7.125l10.992 10.988c.98047.98438 2.2695 1.4766 3.5586 1.4766z" fill="#ffffff" id="svg-el-53"/><path d="m491.6 484.48c-1.9688-1.9688-5.1562-1.9688-7.125.0s-1.9688 5.1562.0 7.125l3.1914 3.1914c.98438.98438 2.2734 1.4766 3.5625 1.4766s2.5781-.49219 3.5625-1.4766c1.9688-1.9688 1.9688-5.1562.0-7.125z" fill="#ffffff" id="svg-el-54"/><path d="m474.18 481.31c.98438.98438 2.2734 1.4766 3.5625 1.4766s2.5781-.49219 3.5625-1.4766c1.9688-1.9688 1.9688-5.1562.0-7.125l-3.1914-3.1914c-1.9688-1.9688-5.1562-1.9688-7.125.0s-1.9688 5.1562.0 7.125z" fill="#ffffff" id="svg-el-55"/><path d="m547.88 491.2 19.758 11.406c.79297.45703 1.6602.67578 2.5156.67578 1.7422.0 3.4336-.90234 4.3672-2.5195 1.3906-2.4102.56641-5.4922-1.8438-6.8828l-19.758-11.406c-2.4141-1.3945-5.4922-.56641-6.8828 1.8438-1.3906 2.4062-.56641 5.4883 1.8438 6.8828z" fill="#ffffff" id="svg-el-56"/><path d="m519.98 469.27c-1.3906 2.4102-.56641 5.4922 1.8438 6.8828l13.453 7.7695c.79297.45703 1.6602.67578 2.5156.67578 1.7422.0 3.4336-.90234 4.3672-2.5195 1.3906-2.4102.56641-5.4922-1.8438-6.8828l-13.453-7.7695c-2.4102-1.3984-5.4883-.5625-6.8828 1.8438z" fill="#ffffff" id="svg-el-57"/><path d="m495.2 449.15-5.8242-3.3672c-2.4102-1.4023-5.4922-.57031-6.8789 1.8438-1.3906 2.4102-.56641 5.4922 1.8438 6.8789l5.8242 3.3672c.79297.46094 1.6562.67578 2.5156.67578 1.7422.0 3.4336-.90234 4.3672-2.5195 1.3867-2.4062.5625-5.4922-1.8477-6.8789z" fill="#ffffff" id="svg-el-58"/><path d="m591.09 445.98-22.035-5.9023c-2.6953-.71875-5.4492.875-6.168 3.5625-.72266 2.6875.875 5.4492 3.5625 6.168l22.035 5.9023c.4375.11719.875.17578 1.3047.17578 2.2227.0 4.2617-1.4844 4.8633-3.7383.71875-2.6836-.875-5.4453-3.5625-6.168z" fill="#ffffff" id="svg-el-59"/><path d="m553.7 446.22c2.2227.0 4.2617-1.4844 4.8633-3.7383.72266-2.6875-.875-5.4492-3.5625-6.168l-15.008-4.0234c-2.6875-.72656-5.4531.875-6.168 3.5625-.72266 2.6875.875 5.4492 3.5625 6.168l15.008 4.0234c.43359.11719.875.17578 1.3047.17578z" fill="#ffffff" id="svg-el-60"/><path d="m523.32 438.26c.43359.11719.875.16797 1.3047.16797 2.2266.0 4.2617-1.4844 4.8672-3.7383.71875-2.6875-.87891-5.4492-3.5664-6.168l-4.3633-1.168c-2.6914-.72266-5.4531.87891-6.168 3.5664-.71875 2.6875.87891 5.4492 3.5664 6.168z" fill="#ffffff" id="svg-el-61"/><path d="m500.54 432.15 4.3594 1.168c.43359.11719.875.17578 1.3047.17578 2.2227.0 4.2617-1.4844 4.8633-3.7383.72266-2.6875-.875-5.4492-3.5625-6.168l-4.3594-1.168c-2.6758-.72656-5.4492.875-6.168 3.5625-.71875 2.6836.875 5.4492 3.5625 6.168z" fill="#ffffff" id="svg-el-62"/><path d="m596.48 394.96h-22.812c-2.7812.0-5.0391 2.2539-5.0391 5.0391.0 2.7812 2.2539 5.0391 5.0391 5.0391l22.812-.003906c2.7812.0 5.0391-2.2539 5.0391-5.0391.0-2.7812-2.2578-5.0352-5.0391-5.0352z" fill="#ffffff" id="svg-el-63"/><path d="m559.11 394.96h-15.539c-2.7812.0-5.0391 2.2539-5.0391 5.0391.0 2.7812 2.2539 5.0391 5.0391 5.0391h15.539c2.7812.0 5.0391-2.2539 5.0391-5.0391s-2.2539-5.0391-5.0391-5.0391z" fill="#ffffff" id="svg-el-64"/><path d="m500.29 405.04h6.7266c2.7812.0 5.0391-2.2539 5.0391-5.0391.0-2.7812-2.2539-5.0391-5.0391-5.0391H500.29c-2.7812.0-5.0391 2.2539-5.0391 5.0391.003906 2.7852 2.2578 5.0391 5.0391 5.0391z" fill="#ffffff" id="svg-el-65"/><path d="m591.09 354.01c2.6875-.72266 4.2812-3.4844 3.5625-6.168-.72266-2.6875-3.4844-4.2969-6.168-3.5625l-22.035 5.9023c-2.6875.72266-4.2812 3.4844-3.5625 6.168.60156 2.25 2.6367 3.7383 4.8633 3.7383.42969.0.87109-.054688 1.3047-.17578z" fill="#ffffff" id="svg-el-66"/><path d="m533.82 364.14c.60156 2.25 2.6367 3.7383 4.8633 3.7383.42969.0.87109-.054687 1.3047-.17578l15.008-4.0234c2.6875-.72266 4.2812-3.4844 3.5625-6.168-.72266-2.6875-3.4922-4.2969-6.168-3.5625l-15.008 4.0234c-2.6875.71875-4.2812 3.4844-3.5625 6.168z" fill="#ffffff" id="svg-el-67"/><path d="m515.39 369.07c.60156 2.2539 2.6406 3.7383 4.8672 3.7383.42969.0.86719-.054688 1.3047-.16797l4.3633-1.168c2.6875-.72266 4.2852-3.4805 3.5664-6.168-.72266-2.6875-3.4844-4.2891-6.168-3.5664l-4.3672 1.1602c-2.6875.72266-4.2852 3.4844-3.5664 6.1719z" fill="#ffffff" id="svg-el-68"/><path d="m496.98 374.01c.60156 2.25 2.6406 3.7383 4.8633 3.7383.42969.0.87109-.054688 1.3047-.17578l4.3594-1.168c2.6875-.72266 4.2812-3.4844 3.5625-6.168-.72266-2.6875-3.4844-4.2891-6.168-3.5625l-4.3594 1.168c-2.6875.72266-4.2812 3.4844-3.5625 6.168z" fill="#ffffff" id="svg-el-69"/><path d="m574.52 299.24c-1.3945-2.4102-4.4805-3.2422-6.8828-1.8438l-19.758 11.406c-2.4102 1.3906-3.2344 4.4766-1.8438 6.8828.93359 1.6172 2.6289 2.5195 4.3672 2.5195.85547.0 1.7227-.21484 2.5156-.67578l19.758-11.406c2.4102-1.3945 3.2344-4.4766 1.8438-6.8828z" fill="#ffffff" id="svg-el-70"/><path d="m542.16 317.92c-1.3945-2.4102-4.4805-3.2422-6.8828-1.8438l-13.453 7.7695c-2.4102 1.3906-3.2344 4.4766-1.8438 6.8828.93359 1.6172 2.6289 2.5195 4.3672 2.5195.85547.0 1.7227-.21484 2.5156-.67578l13.453-7.7695c2.4102-1.3945 3.2344-4.4766 1.8438-6.8828z" fill="#ffffff" id="svg-el-71"/><path d="m482.49 352.37c.93359 1.6172 2.625 2.5195 4.3672 2.5195.85547.0 1.7227-.21484 2.5156-.67578l5.8242-3.3672c2.4102-1.3906 3.2344-4.4727 1.8438-6.8789-1.3906-2.4141-4.4766-3.2383-6.8789-1.8438l-5.8242 3.3672c-2.4141 1.3906-3.2383 4.4727-1.8477 6.8789z" fill="#ffffff" id="svg-el-72"/><path d="m535.37 257.5-16.129 16.129c-1.9688 1.9688-1.9688 5.1562.0 7.125.98437.98438 2.2734 1.4766 3.5625 1.4766s2.5781-.49219 3.5625-1.4766l16.129-16.129c1.9688-1.9688 1.9688-5.1562.0-7.125s-5.1562-1.9688-7.125.0z" fill="#ffffff" id="svg-el-73"/><path d="m508.95 283.93-10.988 10.988c-1.9688 1.9688-1.9688 5.1562.0 7.125.98437.98438 2.2734 1.4766 3.5625 1.4766s2.5781-.49219 3.5625-1.4766l10.984-10.988c1.9688-1.9688 1.9688-5.1562.0-7.125s-5.1562-1.9688-7.1211.0z" fill="#ffffff" id="svg-el-74"/><path d="m488.04 317c1.2891.0 2.5781-.49219 3.5625-1.4766l3.1914-3.1914c1.9688-1.9688 1.9688-5.1562.0-7.125s-5.1562-1.9688-7.125.0l-3.1914 3.1914c-1.9688 1.9688-1.9688 5.1562.0 7.125.98438.98438 2.2734 1.4766 3.5625 1.4766z" fill="#ffffff" id="svg-el-75"/><path d="m474.18 318.69-3.1914 3.1914c-1.9688 1.9688-1.9688 5.1562.0 7.125.98437.98438 2.2734 1.4766 3.5625 1.4766s2.5781-.49219 3.5625-1.4766l3.1914-3.1914c1.9688-1.9688 1.9688-5.1562.0-7.125s-5.1562-1.9688-7.125.0z" fill="#ffffff" id="svg-el-76"/><path d="m500.76 225.47c-2.4141-1.3906-5.4922-.56641-6.8828 1.8438l-11.406 19.758c-1.3906 2.4102-.56641 5.4922 1.8438 6.8828.79297.45703 1.6602.67578 2.5156.67578 1.7422.0 3.4336-.90234 4.3672-2.5195l11.406-19.758c1.3906-2.4062.56641-5.4883-1.8438-6.8828z" fill="#ffffff" id="svg-el-77"/><path d="m475.2 259.68-7.7695 13.453c-1.3906 2.4102-.56641 5.4922 1.8438 6.8828.79297.45703 1.6602.67578 2.5156.67578 1.7422.0 3.4336-.90234 4.3672-2.5195l7.7695-13.453c1.3906-2.4102.56641-5.4922-1.8438-6.8828-2.4141-1.3945-5.4922-.57031-6.8828 1.8438z" fill="#ffffff" id="svg-el-78"/><path d="m456.03 302.96c-2.4102-1.4023-5.4922-.57031-6.8789 1.8438l-3.3672 5.8242c-1.3906 2.4102-.56641 5.4922 1.8438 6.8789.79297.46094 1.6562.67578 2.5156.67578 1.7422.0 3.4336-.90234 4.3672-2.5195l3.3672-5.8242c1.3867-2.4062.5625-5.4883-1.8477-6.8789z" fill="#ffffff" id="svg-el-79"/><path d="m394.96 280.2c0 2.7812 2.2539 5.0391 5.0391 5.0391 2.7812.0 5.0391-2.2539 5.0391-5.0391l-.003906-8.0391c0-2.7812-2.2539-5.0391-5.0391-5.0391-2.7812.0-5.0391 2.2539-5.0391 5.0391z" fill="#ffffff" id="svg-el-80"/><path d="m333.56 284.92c-2.4102 1.3906-3.2344 4.4727-1.8438 6.8828l4.0156 6.9609c.93359 1.6172 2.6289 2.5195 4.3672 2.5195.85547.0 1.7188-.21484 2.5156-.67578 2.4102-1.3906 3.2344-4.4727 1.8438-6.8828l-4.0156-6.9609c-1.3906-2.4062-4.4688-3.2344-6.8828-1.8438z" fill="#ffffff" id="svg-el-81"/><path d="m298.76 335.73-6.9609-4.0156c-2.4219-1.3984-5.4922-.5625-6.8828 1.8438-1.3906 2.4102-.5625 5.4922 1.8438 6.8828l6.9609 4.0156c.79297.45703 1.6602.67578 2.5156.67578 1.7422.0 3.4336-.90234 4.3672-2.5195 1.3906-2.4102.56641-5.4883-1.8438-6.8828z" fill="#ffffff" id="svg-el-82"/><path d="m272.16 405.04h8.0352c2.7812.0 5.0391-2.2539 5.0391-5.0391.0-2.7812-2.2539-5.0391-5.0391-5.0391l-8.0352.003907c-2.7812.0-5.0391 2.2539-5.0391 5.0391.0 2.7812 2.2578 5.0352 5.0391 5.0352z" fill="#ffffff" id="svg-el-83"/><path d="m293.72 455.54-6.9609 4.0156c-2.4102 1.3906-3.2344 4.4727-1.8438 6.8828.93359 1.6172 2.6289 2.5195 4.3672 2.5195.85547.0 1.7188-.21484 2.5156-.67578l6.9609-4.0156c2.4102-1.3906 3.2344-4.4727 1.8438-6.8828-1.3945-2.4062-4.4688-3.2383-6.8828-1.8438z" fill="#ffffff" id="svg-el-84"/><path d="m336.07 515.75c1.7422.0 3.4336-.90234 4.3672-2.5195l4.0156-6.9609c1.3906-2.4102.5625-5.4922-1.8438-6.8828-2.4141-1.3945-5.4922-.5625-6.8828 1.8438l-4.0156 6.9609c-1.3906 2.4102-.5625 5.4922 1.8438 6.8828.79297.46094 1.6602.67578 2.5156.67578z" fill="#ffffff" id="svg-el-85"/><path d="m394.96 527.84c0 2.7812 2.2539 5.0391 5.0391 5.0391 2.7812.0 5.0391-2.2539 5.0391-5.0391v-8.0352c0-2.7812-2.2539-5.0391-5.0391-5.0391-2.7812.0-5.0391 2.2539-5.0391 5.0391z" fill="#ffffff" id="svg-el-86"/><path d="m463.93 515.75c.85547.0 1.7188-.21484 2.5156-.67578 2.4102-1.3906 3.2344-4.4727 1.8438-6.8828l-4.0156-6.9609c-1.3984-2.4102-4.4688-3.2383-6.8828-1.8438-2.4102 1.3906-3.2344 4.4727-1.8438 6.8828l4.0156 6.9609c.92969 1.6172 2.625 2.5195 4.3672 2.5195z" fill="#ffffff" id="svg-el-87"/><path d="m501.23 464.27 6.9609 4.0156c.79297.45703 1.6602.67578 2.5156.67578 1.7422.0 3.4336-.90234 4.3672-2.5195 1.3906-2.4102.5625-5.4922-1.8438-6.8828l-6.9609-4.0156c-2.4219-1.3945-5.4922-.5625-6.8828 1.8438-1.3906 2.4102-.5625 5.4922 1.8438 6.8828z" fill="#ffffff" id="svg-el-88"/><path d="m519.8 394.96c-2.7812.0-5.0391 2.2539-5.0391 5.0391.0 2.7812 2.2539 5.0391 5.0391 5.0391l8.0352-.003906c2.7812.0 5.0391-2.2539 5.0391-5.0391.0-2.7812-2.2539-5.0391-5.0391-5.0391z" fill="#ffffff" id="svg-el-89"/><path d="m515.08 333.56c-1.3945-2.4102-4.4727-3.2422-6.8828-1.8438l-6.9609 4.0156c-2.4102 1.3906-3.2344 4.4727-1.8438 6.8828.93359 1.6172 2.6289 2.5195 4.3672 2.5195.85547.0 1.7188-.21484 2.5156-.67578l6.9609-4.0156c2.4062-1.3906 3.2344-4.4727 1.8438-6.8828z" fill="#ffffff" id="svg-el-90"/><path d="m459.55 286.77-4.0156 6.9609c-1.3906 2.4102-.5625 5.4922 1.8438 6.8828.79297.45703 1.6602.67578 2.5156.67578 1.7422.0 3.4336-.90234 4.3672-2.5195l4.0156-6.9609c1.3906-2.4102.5625-5.4922-1.8438-6.8828-2.418-1.3945-5.4883-.56641-6.8828 1.8438z" fill="#ffffff" id="svg-el-91"/><path d="m394.96 352.45c0 2.7812 2.2539 5.0391 5.0391 5.0391 2.7812.0 5.0391-2.2539 5.0391-5.0391v-3.1875c0-2.7812-2.2539-5.0391-5.0391-5.0391-2.7812.0-5.0391 2.2539-5.0391 5.0391z" fill="#ffffff" id="svg-el-92"/><path d="m379 353.54c-1.3906-2.4102-4.4688-3.2383-6.8828-1.8438-2.4102 1.3906-3.2344 4.4727-1.8438 6.8828l1.5938 2.7617c.93359 1.6172 2.6289 2.5195 4.3672 2.5195.85547.0 1.7188-.21484 2.5156-.67578 2.4102-1.3906 3.2344-4.4727 1.8438-6.8828z" fill="#ffffff" id="svg-el-93"/><path d="m351.7 372.11c-1.3906 2.4102-.5625 5.4922 1.8438 6.8828l2.7617 1.5938c.79297.45703 1.6602.67578 2.5156.67578 1.7422.0 3.4375-.90234 4.3672-2.5195 1.3906-2.4102.5625-5.4922-1.8438-6.8828l-2.7617-1.5938c-2.418-1.3984-5.4961-.56641-6.8828 1.8438z" fill="#ffffff" id="svg-el-94"/><path d="m352.45 394.96h-3.1875c-2.7812.0-5.0391 2.2539-5.0391 5.0391.0 2.7812 2.2539 5.0391 5.0391 5.0391l3.1875-.003906c2.7812.0 5.0391-2.2539 5.0391-5.0391-.003907-2.7812-2.2578-5.0352-5.0391-5.0352z" fill="#ffffff" id="svg-el-95"/><path d="m356.3 419.41-2.7617 1.5938c-2.4102 1.3906-3.2344 4.4727-1.8438 6.8828.93359 1.6172 2.6289 2.5195 4.3672 2.5195.85547.0 1.7188-.21484 2.5156-.67578l2.7617-1.5938c2.4102-1.3906 3.2344-4.4727 1.8438-6.8828-1.3945-2.4062-4.4727-3.2383-6.8828-1.8438z" fill="#ffffff" id="svg-el-96"/><path d="m374.62 448.98c1.7422.0 3.4375-.90234 4.3672-2.5195l1.5938-2.7617c1.3906-2.4102.5625-5.4922-1.8438-6.8828-2.4219-1.3945-5.4922-.5625-6.8828 1.8438l-1.5938 2.7617c-1.3906 2.4102-.5625 5.4922 1.8438 6.8828.79688.45703 1.6641.67578 2.5156.67578z" fill="#ffffff" id="svg-el-97"/><path d="m394.96 450.73c0 2.7812 2.2539 5.0391 5.0391 5.0391 2.7812.0 5.0391-2.2539 5.0391-5.0391l-.003906-3.1875c0-2.7812-2.2539-5.0391-5.0391-5.0391-2.7812.0-5.0391 2.2539-5.0391 5.0391z" fill="#ffffff" id="svg-el-98"/><path d="m419.41 443.69 1.5938 2.7617c.93359 1.6172 2.6289 2.5195 4.3672 2.5195.85547.0 1.7188-.21484 2.5156-.67578 2.4102-1.3906 3.2344-4.4727 1.8438-6.8828l-1.5938-2.7617c-1.3867-2.4102-4.4688-3.2383-6.8828-1.8438-2.4062 1.3906-3.2305 4.4727-1.8438 6.8828z" fill="#ffffff" id="svg-el-99"/><path d="m436.81 421.25c-1.3906 2.4102-.5625 5.4922 1.8438 6.8828l2.7617 1.5938c.79297.45703 1.6602.67578 2.5156.67578 1.7422.0 3.4375-.90234 4.3672-2.5195 1.3906-2.4102.5625-5.4922-1.8438-6.8828l-2.7617-1.5938c-2.418-1.3984-5.4922-.56641-6.8828 1.8438z" fill="#ffffff" id="svg-el-100"/><path d="m447.55 405.04h3.1875c2.7812.0 5.0391-2.2539 5.0391-5.0391.0-2.7812-2.2539-5.0391-5.0391-5.0391l-3.1875.003907c-2.7812.0-5.0391 2.2539-5.0391 5.0391.0 2.7812 2.2539 5.0352 5.0391 5.0352z" fill="#ffffff" id="svg-el-101"/><path d="m441.42 370.27-2.7617 1.5938c-2.4102 1.3906-3.2344 4.4727-1.8438 6.8828.93359 1.6172 2.6289 2.5195 4.3672 2.5195.85547.0 1.7188-.21484 2.5156-.67578l2.7617-1.5938c2.4102-1.3906 3.2344-4.4727 1.8438-6.8828-1.3906-2.4062-4.4688-3.2383-6.8828-1.8438z" fill="#ffffff" id="svg-el-102"/><path d="m419.41 356.3c-1.3906 2.4102-.5625 5.4922 1.8438 6.8828.79297.45703 1.6602.67578 2.5156.67578 1.7422.0 3.4375-.90234 4.3672-2.5195l1.5938-2.7617c1.3906-2.4102.5625-5.4922-1.8438-6.8828-2.4141-1.3945-5.4961-.5625-6.8828 1.8438z" fill="#ffffff" id="svg-el-103"/><path d="m394.96 329.08c0 2.7812 2.2539 5.0391 5.0391 5.0391 2.7812.0 5.0391-2.2539 5.0391-5.0391v-4.7578c0-2.7812-2.2539-5.0391-5.0391-5.0391-2.7812.0-5.0391 2.2539-5.0391 5.0391z" fill="#ffffff" id="svg-el-104"/><path d="m366.52 331.95c-1.3906-2.4102-4.4805-3.2422-6.8789-1.8438-2.4102 1.3906-3.2344 4.4727-1.8438 6.8789l2.3789 4.1172c.93359 1.6172 2.625 2.5195 4.3672 2.5195.85547.0 1.7227-.21484 2.5156-.67578 2.4102-1.3906 3.2344-4.4727 1.8438-6.8789z" fill="#ffffff" id="svg-el-105"/><path d="m336.98 357.8c-2.4062-1.4023-5.4922-.56641-6.8789 1.8438-1.3906 2.4102-.56641 5.4922 1.8438 6.8789l4.1172 2.3789c.79297.46094 1.6562.67578 2.5156.67578 1.7422.0 3.4336-.90234 4.3672-2.5195 1.3906-2.4102.56641-5.4922-1.8438-6.8789z" fill="#ffffff" id="svg-el-106"/><path d="m329.08 405.04c2.7812.0 5.0391-2.2539 5.0391-5.0391.0-2.7812-2.2539-5.0391-5.0391-5.0391h-4.7578c-2.7812.0-5.0391 2.2539-5.0391 5.0391.0 2.7812 2.2539 5.0391 5.0391 5.0391z" fill="#ffffff" id="svg-el-107"/><path d="m334.47 442.88c.85547.0 1.7227-.21484 2.5156-.67578l4.1172-2.3789c2.4102-1.3906 3.2344-4.4727 1.8438-6.8789-1.3906-2.4102-4.4844-3.2422-6.8789-1.8438l-4.1172 2.3789c-2.4102 1.3906-3.2344 4.4727-1.8438 6.8789.92969 1.6172 2.6211 2.5195 4.3633 2.5195z" fill="#ffffff" id="svg-el-108"/><path d="m360.18 458.89-2.3789 4.1172c-1.3906 2.4102-.56641 5.4922 1.8438 6.8789.79297.46094 1.6562.67578 2.5156.67578 1.7422.0 3.4336-.90234 4.3672-2.5195l2.3789-4.1172c1.3906-2.4102.56641-5.4922-1.8438-6.8789-2.4102-1.3984-5.4961-.56641-6.8828 1.8438z" fill="#ffffff" id="svg-el-109"/><path d="m394.96 475.67c0 2.7812 2.2539 5.0391 5.0391 5.0391 2.7812.0 5.0391-2.2539 5.0391-5.0391v-4.7578c0-2.7812-2.2539-5.0391-5.0391-5.0391-2.7812.0-5.0391 2.2539-5.0391 5.0391z" fill="#ffffff" id="svg-el-110"/><path d="m431.09 463.93 2.3789 4.1172c.93359 1.6172 2.625 2.5195 4.3672 2.5195.85547.0 1.7227-.21484 2.5156-.67578 2.4102-1.3906 3.2344-4.4727 1.8438-6.8789l-2.3789-4.1172c-1.3906-2.4141-4.4805-3.2461-6.8789-1.8438-2.4141 1.3906-3.2383 4.4727-1.8477 6.8789z" fill="#ffffff" id="svg-el-111"/><path d="m463.02 442.2c.79297.46094 1.6562.67578 2.5156.67578 1.7422.0 3.4336-.90234 4.3672-2.5195 1.3906-2.4102.56641-5.4922-1.8438-6.8789l-4.1172-2.3789c-2.4102-1.3984-5.4922-.56641-6.8789 1.8438-1.3906 2.4102-.56641 5.4922 1.8438 6.8789z" fill="#ffffff" id="svg-el-112"/><path d="m475.67 405.04c2.7812.0 5.0391-2.2539 5.0391-5.0391.0-2.7812-2.2539-5.0391-5.0391-5.0391h-4.7578c-2.7812.0-5.0391 2.2539-5.0391 5.0391.0 2.7812 2.2539 5.0391 5.0391 5.0391z" fill="#ffffff" id="svg-el-113"/><path d="m463.02 357.8-4.1172 2.3789c-2.4102 1.3906-3.2344 4.4727-1.8438 6.8789.93359 1.6172 2.625 2.5195 4.3672 2.5195.85547.0 1.7227-.21484 2.5156-.67578l4.1172-2.3789c2.4102-1.3906 3.2344-4.4727 1.8438-6.8789-1.3945-2.4141-4.4844-3.2461-6.8828-1.8438z" fill="#ffffff" id="svg-el-114"/><path d="m440.36 330.1c-2.4023-1.3984-5.4922-.56641-6.8789 1.8438l-2.3789 4.1172c-1.3906 2.4102-.56641 5.4922 1.8438 6.8789.79297.46094 1.6562.67578 2.5156.67578 1.7422.0 3.4336-.90234 4.3672-2.5195l2.3789-4.1172c1.3867-2.4062.5625-5.4883-1.8477-6.8789z" fill="#ffffff" id="svg-el-115"/><path d="m452.16 205.34c-2.6914-.73047-5.4531.875-6.168 3.5625l-5.9023 22.035c-.72266 2.6875.875 5.4492 3.5625 6.168.4375.11719.875.17578 1.3047.17578 2.2227.0 4.2617-1.4844 4.8633-3.7383l5.9023-22.035c.71875-2.6836-.875-5.4492-3.5625-6.168z" fill="#ffffff" id="svg-el-116"/><path d="m436.32 245-4.0234 15.008c-.72266 2.6875.875 5.4492 3.5625 6.168.43359.11719.875.17578 1.3047.17578 2.2266.0 4.2617-1.4844 4.8633-3.7383l4.0234-15.008c.72266-2.6875-.875-5.4492-3.5625-6.168-2.6836-.72266-5.4492.87891-6.168 3.5625z" fill="#ffffff" id="svg-el-117"/><path d="m428.52 274.07-1.168 4.3633c-.71875 2.6875.87891 5.4492 3.5664 6.168.43359.11719.875.17188 1.3047.17188 2.2266.0 4.2617-1.4883 4.8672-3.7383l1.168-4.3633c.71875-2.6875-.87891-5.4492-3.5664-6.168-2.6914-.71484-5.4531.87891-6.1719 3.5664z" fill="#ffffff" id="svg-el-118"/><path d="m423.59 292.49-1.168 4.3594c-.72266 2.6875.875 5.4492 3.5625 6.168.43359.11719.875.17578 1.3047.17578 2.2227.0 4.2617-1.4844 4.8633-3.7383l1.168-4.3594c.72266-2.6875-.875-5.4492-3.5625-6.168-2.6836-.72656-5.4453.875-6.168 3.5625z" fill="#ffffff" id="svg-el-119"/></g></g></svg>