<svg xmlns="http://www.w3.org/2000/svg" width="400" height="400" viewBox="0 0 400 400"><defs xmlns="http://www.w3.org/2000/svg"><clipPath id="a"><path d="m148.09 148.09H651.9V651.9H148.09z"/></clipPath></defs><g transform="translate(200, 200) translate(-128, -128) scale(0.5) translate(-144, -144)"><g xmlns="http://www.w3.org/2000/svg" clip-path="url(#a)" fill="#ffffff"><path d="m598.31 190.72-29.398-29.398c-3.0273-3.0273-3.0273-7.9336.0-10.961 3.0273-3.0273 7.9336-3.0273 10.961.0l69.758 69.758c3.0273 3.0273 3.0273 7.9375.0 10.961-3.0273 3.0273-7.9336 3.0273-10.961.0l-29.398-29.398-78.176 78.176 17.773 17.773c3.0273 3.0273 3.0273 7.9336.0 10.961l-33.273 33.273 25.523 25.523c3.0273 3.0273 3.0273 7.9336.0 10.961-3.0273 3.0273-7.9336 3.0273-10.961.0l-10.023-10.023-211.54 211.55c-1.4531 1.4531-3.4258 2.2695-5.4805 2.2695h-74.301l-67.488 67.488c-3.0273 3.0273-7.9336 3.0273-10.961.0-3.0273-3.0273-3.0273-7.9336.0-10.961l67.488-67.488v-74.297c0-2.0586.81641-4.0273 2.2695-5.4844l211.55-211.54-10.023-10.02c-3.0273-3.0273-3.0273-7.9375.0-10.965 3.0273-3.0234 7.9375-3.0234 10.965.0l25.52 25.523 33.273-33.273c3.0273-3.0273 7.9375-3.0273 10.965.0l17.77 17.773zM469.09 295.36l35.543 35.547 27.793-27.793-35.543-35.547zM314.07 419.38l25.523 25.523c3.0273 3.0273 3.0273 7.9336.0 10.961s-7.9375 3.0273-10.961.0l-25.523-25.523-27.793 27.793 10.02 10.023c3.0273 3.0273 3.0273 7.9336.0 10.961-3.0273 3.0273-7.9336 3.0273-10.961.0l-10.02-10.02-31.004 31v66.551h66.547l209.27-209.28-66.547-66.547-51.047 51.047 25.523 25.523c3.0273 3.0273 3.0273 7.9336.0 10.961-3.0273 3.0273-7.9336 3.0273-10.961.0l-25.523-25.523-27.793 27.793 10.02 10.02c3.0273 3.0273 3.0273 7.9375.0 10.965-3.0234 3.0234-7.9336 3.0234-10.961.0l-10.02-10.023z" fill="#ffffff" id="svg-el-1"/></g></g></svg>