<svg xmlns="http://www.w3.org/2000/svg" width="400" height="400" viewBox="0 0 400 400"><g transform="translate(200, 200) translate(-128, -128) scale(0.5) translate(-144, -144)" fill="#000"><g xmlns="http://www.w3.org/2000/svg" fill="#2A4dd0" paint-order="fill stroke" stroke="#2A4dd0" stroke-width="3" stroke-linejoin="round" stroke-linecap="round"><path d="m392.21 601.29h11.93c13.195.0 25.605-5.1484 34.945-14.5 9.3477-9.3477 14.496-21.758 14.488-34.945l.003906-151.22h-110.81v151.23c0 27.258 22.172 49.441 49.441 49.441zm-44.664-195.9h101.25v146.45c.003906 11.918-4.6445 23.129-13.082 31.578-8.4492 8.4375-19.66 13.094-31.578 13.094h-11.93c-24.629.0-44.664-20.035-44.664-44.672z" fill="#2A4dd0" paint-order="fill stroke" stroke="#2A4dd0" stroke-width="3" stroke-linejoin="round" stroke-linecap="round" id="svg-el-0"/><path d="m465.71 190.08H334.28c-8.0781.0-14.641 6.582-14.641 14.668.0 7.4688 5.543 13.648 12.945 14.512v331.66c-.007812 32.531 26.449 58.996 58.965 58.996h13.23c32.527.0 58.988-26.465 58.988-58.992v-331.5h1.9531c8.0664.0 14.625-6.5859 14.625-14.684.0-8.0859-6.5664-14.668-14.641-14.668zm-7.2383 360.85c0 29.609-24.082 53.699-53.688 53.699h-13.23c-29.598.0-53.676-24.094-53.676-53.699V215.29h120.59zM465.7139 210h-131.43c-2.8672.0-5.1953-2.3516-5.1953-5.2422.0-2.8828 2.332-5.2266 5.1953-5.2266h131.43c2.8672.0 5.1914 2.3477 5.1914 5.2266.003906 2.8945-2.3242 5.2422-5.1914 5.2422z" fill="#2A4dd0" paint-order="fill stroke" stroke="#2A4dd0" stroke-width="3" stroke-linejoin="round" stroke-linecap="round" id="svg-el-1"/></g></g></svg>