<svg xmlns="http://www.w3.org/2000/svg" width="400" height="400" viewBox="0 0 400 400"><g transform="translate(200, 200) translate(-128, -128) scale(0.5) translate(-144, -144)" fill="#000"><g xmlns="http://www.w3.org/2000/svg" fill="#2a4dd0"><path d="m426.72 281.42 35.625-35.625 121.12 121.12-35.625 35.625z" fill="#2a4dd0" id="svg-el-0"/><path d="m431.49 370.12c0 8.3477-6.7695 15.117-15.117 15.117s-15.113-6.7695-15.113-15.117 6.7656-15.113 15.113-15.113 15.117 6.7656 15.117 15.113" fill="#2a4dd0" id="svg-el-1"/><path d="m291.33 473.8c-17.684 17.684-17.684 46.402.0 64.137 17.684 17.684 46.402 17.684 64.137.0l135.37-135.43-121.12-7.1055zm18.539 50.332c-8.8672-8.8672-8.8672-23.227.0-32.043 8.8672-8.8672 23.227-8.8672 32.043.0 8.8672 8.8672 8.8672 23.227.0 32.043-8.8164 8.8672-23.176 8.8672-32.043.0zm111.89-94.062c5.8945 5.8945 5.8945 15.469.0 21.363s-15.469 5.8945-21.363.0c-5.8945-5.8945-5.8945-15.469.0-21.363 5.8984-5.9414 15.469-5.9414 21.363.0zm-56.828 16.375c6.9023 6.9023 6.9023 18.035.0 24.938-6.9023 6.9023-18.035 6.9023-24.938.0-6.9023-6.9023-6.9023-18.035.0-24.938 6.9023-6.8516 18.086-6.8516 24.938.0z" fill="#2a4dd0" id="svg-el-2"/><path d="m493.5 367.75c.90625-.90625 1.6641-1.9141 2.3672-2.9219l-24.336-24.336c-1.0586.65625-2.0156 1.4609-2.9219 2.3672-6.9023 6.9023-6.9023 18.035.0 24.938 6.8555 6.8555 18.039 6.8555 24.891-.046875z" fill="#2a4dd0" id="svg-el-3"/><path d="m362.62 545.05c-21.613 21.613-56.781 21.613-78.395.0-21.613-21.613-21.613-56.781.0-78.395l156.73-156.73-7.1055-7.1055-156.78 156.73c-25.594 25.594-25.594 67.059.0 92.602 25.594 25.594 67.059 25.594 92.602.0l156.78-156.73-7.1055-7.1055z" fill="#2a4dd0" id="svg-el-4"/></g></g></svg>