<svg xmlns="http://www.w3.org/2000/svg" width="400" height="400" viewBox="0 0 400 400"><g transform="translate(200, 200) translate(-128, -128) scale(0.5) translate(-144, -144)" fill="#000"><path xmlns="http://www.w3.org/2000/svg" d="m474.06 252.38-49.375 118.9c-4.0312 10.078.50391 17.633 10.578 17.633h60.961l-172.8 158.7 51.891-125.45 20.656-16.625h-92.699l170.79-153.16m22.672 137.04m-22.672-152.15c-3.5273.0-7.0547 1.5117-10.078 4.0312l-170.79 152.65c-4.5352 4.0312-6.0469 10.578-4.0312 16.625s8.0625 9.5742 14.105 9.5742h56.43l-50.383 121.42c-2.5195 6.5508-.50391 14.105 5.0391 18.137 2.5195 2.0156 5.543 2.5195 8.5664 2.5195 3.5273.0 7.5586-1.5117 10.078-4.0312l172.81-157.69c3.0234-2.5195 5.0391-7.0547 5.0391-11.586.0-8.5664-6.5508-15.113-15.113-15.113l-55.426-.003907 47.863-115.88c2.5195-6.5508.50391-14.105-5.0391-18.137-3.0234-1.5117-6.0469-2.5195-9.0703-2.5195z" fill="#2A4dd0" id="svg-el-0"/></g></svg>