<svg xmlns="http://www.w3.org/2000/svg" width="400" height="400" viewBox="0 0 400 400"><g transform="translate(200, 200) translate(-128, -128) scale(0.5) translate(-144, -144)" fill="#000"><path xmlns="http://www.w3.org/2000/svg" d="m221.14 604.04 50.383-161.22h30.73l11.586 15.113h-31.738l-45.344 130.99h327.48l-40.305-130.99H491.69l11.586-15.113h30.73l50.383 161.22zm292.21-201.53-110.84 151.14-110.84-151.14h.50391c-13.098-20.152-20.656-44.336-20.656-70.535.0-72.547 58.441-130.99 130.99-130.99 72.547.0 130.99 58.441 130.99 130.99.0 26.199-7.5586 50.383-20.656 70.535zm5.0391-68.516c0-64.992-51.891-117.89-115.88-117.89s-115.88 52.898-115.88 117.89c0 23.176 6.5508 45.344 18.137 63.48h-.50391l98.242 136.03 98.242-136.03h-.50391c11.586-18.137 18.137-40.305 18.137-63.48zm-115.88 48.363c-27.711.0-50.383-22.672-50.383-50.383.0-27.711 22.672-50.383 50.383-50.383s50.383 22.672 50.383 50.383c0 27.715-22.672 50.383-50.383 50.383zm0-85.645c-19.648.0-35.266 15.617-35.266 35.266s15.617 35.266 35.266 35.266 35.266-15.617 35.266-35.266c.003906-19.648-15.613-35.266-35.266-35.266z" fill-rule="evenodd" fill="#2A4dd0" id="svg-el-0"/></g></svg>