<svg xmlns="http://www.w3.org/2000/svg" width="400" height="400" viewBox="0 0 400 400"><g transform="translate(200, 200) translate(-128, -128) scale(0.5) translate(-144, -144)" fill="#000"><g xmlns="http://www.w3.org/2000/svg" fill="#2a4dd0"><path d="m462.98 266.18c0-34.715-28.262-62.977-62.977-62.977s-62.977 28.262-62.977 62.977 28.262 62.977 62.977 62.977 62.977-28.262 62.977-62.977zm-62.977 47.23c-26.055.0-47.23-21.176-47.23-47.23.0-26.055 21.176-47.23 47.23-47.23s47.23 21.176 47.23 47.23c0 26.055-21.176 47.23-47.23 47.23z" fill="#2a4dd0" id="svg-el-0"/><path d="m277.98 493.44c-14.879-2.0469-29.914 2.4414-41.25 12.281-11.336 9.8398-17.789 24.168-17.789 39.125s6.6914 29.676 18.262 39.516c9.4453 8.0312 21.41 12.359 33.613 12.359 2.7539.0 5.5898-.23438 8.3438-.62891l120.76-19.523 120.91 19.523c2.7539.47266 5.5898.62891 8.3438.62891 12.203.0 24.168-4.3281 33.613-12.359 11.652-9.918 18.262-24.324 18.262-39.598.0-28.574-23.223-51.875-51.797-51.875-2.832.0-5.1953.15625-7.2422.47266l-51.168 7.0859v-34.953l80.059 22.828c2.2031.62891 4.4102.94531 6.6133.94531 5.0391.0 9.918-1.6523 14.09-4.7227 5.9844-4.4883 9.4453-11.414 9.4453-18.895.0-9.6055-5.9844-18.344-14.879-21.883l-65.258-26.137-12.438-41.406c-7.0078-23.539-28.184-39.281-52.742-39.281h-12.121v15.742h12.121c17.477.0 32.59 11.258 37.629 28.102l13.539 45.027c.70703 2.2812 2.3633 4.1719 4.6445 5.0391l68.801 27.551c2.9922 1.1797 4.9609 4.0938 4.9609 7.2422.0 2.5195-1.1797 4.8008-3.1484 6.2969s-4.4883 1.9688-6.9258 1.2578l-86.828-24.797-22.043-44.16-14.09 7.0078 22.75 45.578v45.738l-55.027 7.6367-55.184-7.6367v-45.656l22.75-45.578-14.09-7.0078-22.043 44.16-86.672 24.719c-1.1016.31641-1.8906.39453-2.3633.39453-4.3281.0-7.793-3.543-7.793-7.8711.0-3.1484 1.9688-6.0625 4.9609-7.2422l68.801-27.551c2.2031-.86719 3.9375-2.7539 4.6445-5.0391l13.539-45.027c5.0391-16.766 20.152-28.102 37.629-28.102h12.121v-15.742h-12.121c-24.48.0-45.656 15.824-52.742 39.281l-12.438 41.406-65.258 26.137c-8.8945 3.543-14.879 12.281-14.879 21.883.0 12.988 10.547 23.617 23.539 23.617 2.0469.0 4.1719-.31641 6.5352-.94531l80.137-22.906v34.953l-51.168-7.0859zm246.32 15.586c1.6523-.23438 3.3047-.31641 4.9609-.31641 19.918.0 36.055 16.215 36.055 36.133.0 10.629-4.6445 20.703-12.754 27.551-8.1094 6.9258-18.734 9.8398-29.207 8.1875l-74.156-12.043c12.594-2.2031 21.648-12.91 21.648-25.742.0-10.785-6.7695-20.309-16.453-24.168l69.98-9.6836zm-78.168 23.539c5.1172.70703 8.9727 5.1172 8.9727 10.312s-3.6992 9.4453-8.7383 10.234l-169.72 27.473c-10.469 1.7305-21.176-1.2578-29.207-8.1875-8.1094-6.9258-12.754-16.926-12.754-27.551.0-10.629 4.4883-20.387 12.438-27.316 6.6133-5.7461 15.113-8.8945 23.773-8.8945 1.6523.0 3.3047.078126 4.9609.31641l170.27 23.539z" fill="#2a4dd0" id="svg-el-1"/><path d="m392.12 337.02h15.742v15.742H392.12z" fill="#2a4dd0" id="svg-el-2"/></g></g></svg>