<svg xmlns="http://www.w3.org/2000/svg" width="400" height="400" viewBox="0 0 400 400"><g transform="translate(200, 200) translate(-128, -128) scale(0.5) translate(-144, -144)" fill="#000"><path xmlns="http://www.w3.org/2000/svg" d="m263.53 169.09c-5.7656.023437-10.434 4.6914-10.457 10.453v126c.019531 4.1758 2.5156 7.9453 6.3555 9.5938-.003907.003906.0.015625.0.019532-4.2266 13.867-6.375 28.316-6.375 42.867.0 4.4102.24609 8.7891.65625 13.141.21875 2.4688.60156 4.8867.94141 7.3164.23047 1.5703.4375 3.1406.71875 4.6953.59375 3.4258 1.3242 6.7891 2.1523 10.129 4.8125 19.418 13.469 37.281 25.152 52.805-23.672 2.4375-47.258 6.0117-66.91 12.957-12.609 4.457-23.75 10.082-32.309 18-8.5625 7.918-14.371 18.809-14.371 31.098v122.75c0 5.7969 4.6992 10.496 10.496 10.496h440.83c5.7969.0 10.496-4.6992 10.496-10.496v-122.75c0-12.281-5.8164-23.176-14.371-31.098-8.5508-7.9219-19.664-13.555-32.266-18.02-19.648-6.9609-43.238-10.555-66.91-12.996 13.688-18.207 23.246-39.613 27.285-62.957.26953-1.4922.45312-3.0039.67578-4.5117.34766-2.4727.73828-4.9297.96094-7.4414.41016-4.3438.65625-8.7109.65625-13.117.0-9.7031-.95312-19.359-2.8477-28.824-.94531-4.7344-2.1172-9.4219-3.5273-14.043 3.8633-1.6367 6.3789-5.418 6.3984-9.6133v-126c-.023438-5.793-4.7422-10.477-10.539-10.453zm10.555 21.012h251.89v104.94h-.023437-251.86zm125.89 10.457c-2.7812.007812-5.4492 1.125-7.4102 3.1016-1.957 1.9766-3.0547 4.6523-3.043 7.4336v20.992h-20.992c-2.7852-.011719-5.457 1.0859-7.4336 3.0469-1.9766 1.9609-3.0938 4.625-3.1055 7.4102-.007813 2.7969 1.0977 5.4844 3.0742 7.4609 1.9805 1.9805 4.668 3.0859 7.4648 3.0742h20.992v21.012c.023437 5.7656 4.6914 10.434 10.453 10.457 2.7852.011719 5.4609-1.0859 7.4336-3.0469 1.9766-1.9609 3.0938-4.625 3.1055-7.4102v-21.012h21.012c2.7852-.011719 5.4492-1.125 7.4102-3.1016 1.9609-1.9766 3.0547-4.6523 3.0469-7.4336-.023437-5.7656-4.6914-10.434-10.457-10.457h-21.012v-20.992c.011719-2.7969-1.0977-5.4844-3.0742-7.4609-1.9805-1.9805-4.6641-3.0859-7.4648-3.0742zm-117.53 115.48h235.07c1.2109 3.3867 2.3477 6.8047 3.3633 10.25 3.0469 10.332 5.0586 20.922 5.0625 31.734.0 4.25-.22656 8.4453-.63281 12.586-.39062 3.8867-.98047 7.7305-1.7227 11.543-.03125.16016-.050781.32812-.082031.49219v.019531c-.76172 3.8164-1.7227 7.5977-2.8281 11.316-.058594.19531-.085938.39844-.14453.59375-.003906.015625-.015624.027344-.019531.039063-1.1836 3.9023-2.5469 7.7383-4.1016 11.504-6.2383 15.105-15.426 28.988-27.184 40.793-.19922.20312-.39062.41797-.57422.63672-.003906.007813-.011718.011719-.019531.019532-22.742 22.512-54.031 36.406-88.641 36.406-34.52.0-65.734-13.816-88.461-36.223-.027343-.035157-.054687-.066407-.082031-.10156-.19922-.24219-.41016-.47266-.63281-.69531-14.719-14.762-25.398-32.777-31.344-52.359-1.1875-3.9023-2.1719-7.875-2.9727-11.891-.003906-.011718-.019531-.023437-.023437-.039062-.097656-.50391-.12891-1.0312-.22266-1.5391-.65234-3.4766-1.2227-6.9766-1.582-10.516-.40625-4.1406-.63281-8.3359-.63281-12.586.0-3.6055.22266-7.1914.63281-10.742 1.2344-10.66 4.1523-21.082 7.7695-31.242zm217.79 149.14c27.793 2.1328 56.234 6.2891 77.02 13.652 10.93 3.8711 19.617 8.6406 25.012 13.633 5.3906 4.9961 7.6445 9.5352 7.6445 15.703v112.26h-419.84v-112.26c0-6.1719 2.2539-10.715 7.6445-15.703 5.3945-4.9883 14.098-9.7461 25.031-13.613 20.809-7.3516 49.27-11.504 77.082-13.629 26.273 24.566 61.434 39.746 100.16 39.746 38.758.0 73.961-15.188 100.24-39.789z" fill="#2A4dd0" id="svg-el-0"/></g></svg>