<svg xmlns="http://www.w3.org/2000/svg" width="400" height="400" viewBox="0 0 400 400"><g transform="translate(200, 200) translate(-128, -128) scale(0.5) translate(-144, -144)" fill="#000"><path xmlns="http://www.w3.org/2000/svg" d="m586.41 213.59c-21.75-21.699-51.223-33.887-81.945-33.887-30.727.0-60.195 12.188-81.949 33.887l-208.92 208.92c-29.277 29.277-40.711 71.949-29.996 111.95 10.715 39.992 41.953 71.23 81.949 81.945 39.992 10.719 82.664-.71875 111.94-29.996l208.92-208.92c21.777-21.711 34.016-51.195 34.016-81.949.0-30.75-12.238-60.234-34.016-81.945zM355.29 564.21c-21.57 20.164-52.098 27.609-80.531 19.648-28.43-7.9609-50.648-30.18-58.613-58.613-7.9609-28.434-.51562-58.961 19.648-80.531l93.363-93.363 119.5 119.5zm208.92-208.92-93.359 93.363-119.5-119.5 93.363-93.363v.003906c21.57-20.164 52.098-27.609 80.531-19.648 28.434 7.9648 50.652 30.184 58.613 58.613 7.9609 28.434.51562 58.961-19.648 80.531z" fill="#2a4dd0" id="svg-el-0"/></g></svg>