<svg xmlns="http://www.w3.org/2000/svg" width="400" height="400" viewBox="0 0 400 400"><g transform="translate(200, 200) translate(-128, -128) scale(0.5) translate(-144, -144)" fill="#000"><g xmlns="http://www.w3.org/2000/svg" fill="#2A4dd0"><path d="m619.51 282.11c-1.8398-1.8516-4.5273-2.582-7.0547-1.9141l-22.621 6.1953v.003906c-21.305-35.781-52.277-64.824-89.352-83.785-37.074-18.965-78.746-27.082-120.23-23.418-41.48 3.6602-81.086 18.957-114.27 44.125-1.5742 1.2305-2.5469 3.082-2.6602 5.0781-.11719 1.9961.63281 3.9453 2.0547 5.3516l.40234.40234h.003906c2.5039 2.5 6.4844 2.7383 9.2695.55469 35.957-27.215 79.848-41.887 124.95-41.766 36.746-.22656 72.871 9.4883 104.55 28.113 31.68 18.625 57.734 45.469 75.41 77.688 1.6406 2.9297 5.0703 4.3672 8.3125 3.4766l15.82-4.332-23.227 88.012-64.641-64.285 13.352-3.6289c2.3281-.60937 4.2109-2.3242 5.0391-4.582.80859-2.2266.48828-4.7031-.85547-6.6523-23.621-34.039-59.332-57.789-99.855-66.406-40.527-8.6172-82.812-1.4492-118.24 20.035-35.422 21.484-61.32 55.676-72.406 95.594l-42.672-10.078v.003906c6.9883-26.023 18.969-50.441 35.266-71.895 2.1875-2.7852 1.9492-6.7656-.55078-9.2695l-.40234-.40234h-.003906c-1.4102-1.4258-3.3711-2.1758-5.375-2.0625-2.0039.11719-3.8633 1.0859-5.1016 2.6641-19.25 25.184-32.871 54.199-39.953 85.094-.81641 3.9141 1.6445 7.7656 5.543 8.668l56.828 13.148c1.8867.44922 3.875.12109 5.5156-.91406 1.6367-1.0312 2.793-2.6836 3.1992-4.5781 8.3789-36.316 30.133-68.145 60.926-89.141 30.797-21 68.371-29.625 105.24-24.156 36.867 5.4648 70.324 24.617 93.703 53.645l-15.113 4.1328c-2.4453.68359-4.3594 2.5938-5.0391 5.0391-.63672 2.5234.089844 5.1953 1.9141 7.0508l82.371 82.121c1.3438 1.332 3.1484 2.0898 5.0391 2.1172.60547.03125 1.2148.0 1.8125-.10156 2.4414-.69141 4.3477-2.5977 5.0391-5.0352l30.23-112.86c.61719-2.5703-.21484-5.2734-2.168-7.0547zm-365.36-39.043-.25-.40234c-1.3203-1.3672-3.1406-2.1406-5.0391-2.1406-1.8984.0-3.7188.77344-5.0391 2.1406l-.30078.30078c-1.3672 1.3203-2.1406 3.1367-2.1406 5.0391.0 1.8984.77344 3.7188 2.1406 5.0391l.40234.40234c1.3203 1.3672 3.1367 2.1367 5.0391 2.1367 1.8984.0 3.7188-.76953 5.0391-2.1367 1.4531-1.3242 2.2969-3.1914 2.3281-5.1562.027343-1.9688-.76172-3.8594-2.1797-5.2227z" fill="#2A4dd0" id="svg-el-0"/><path d="m610.64 438.04-57.031-12.293c-1.8906-.41016-3.8672-.046876-5.4922 1.0078-1.6289 1.0664-2.7695 2.7305-3.1719 4.6367-7.8672 36.703-29.363 69.059-60.156 90.527-30.793 21.473-68.582 30.461-105.75 25.148-37.16-5.3086-70.922-24.523-94.469-53.758l15.113-4.1328h.003906c2.4453-.67969 4.3555-2.5938 5.0352-5.0391.63672-2.5234-.085937-5.1953-1.9141-7.0508l-82.371-82.121c-1.7891-1.8008-4.375-2.5625-6.8516-2.0156-2.4414.69141-4.3477 2.5977-5.0391 5.0391l-29.977 112.85c-.66406 2.5234.0625 5.207 1.9141 7.0469 1.8477 1.8359 4.5352 2.5508 7.0547 1.8711l22.621-6.1953c21.285 35.98 52.375 65.16 89.629 84.125 37.258 18.969 79.145 26.938 120.76 22.977 41.621-3.9609 81.25-19.684 114.26-45.336 1.5781-1.2305 2.5469-3.082 2.6641-5.0781.11719-1.9961-.63281-3.9453-2.0586-5.3516l-.40234-.40234c-2.4844-2.3672-6.3125-2.6016-9.0703-.55469-31.316 24.336-69.004 39.098-108.52 42.508-39.52 3.4062-79.176-4.6875-114.2-23.305-35.02-18.617-63.914-46.961-83.191-81.625-1.3086-2.3281-3.7812-3.7578-6.4492-3.7266-.63672-.097656-1.2812-.097656-1.9141.0l-15.82 4.332 23.277-88.016 64.637 64.285-13.352 3.6289c-2.3281.60938-4.2109 2.3242-5.0391 4.582-.80859 2.2266-.48828 4.7031.85938 6.6523 23.773 34.32 59.832 58.188 100.71 66.668 40.879 8.4805 83.457.92188 118.92-21.105 35.465-22.031 61.105-56.848 71.617-97.254l42.824 9.2188c-6.6992 26.637-18.695 51.652-35.266 73.559-2.1328 2.7812-1.8984 6.7109.55469 9.2188l.45313.40234c1.4062 1.3594 3.3203 2.0625 5.2695 1.9492 1.9531-.11328 3.7695-1.0391 5.0078-2.5547 19.43-25.625 33-55.207 39.75-86.652.82031-3.8867-1.5859-7.7188-5.4414-8.668zM557.136 545.7l-.35156-.40234c-2.7891-2.7656-7.2891-2.7656-10.078.0-1.3398 1.332-2.0938 3.1484-2.0938 5.0391.0 1.8906.75391 3.7031 2.0938 5.0391l.40234.40234c1.3203 1.3672 3.1406 2.1367 5.0391 2.1367 1.9023.0 3.7188-.76953 5.0391-2.1367l.45312-.50391c2.3828-2.8242 2.1641-7.0156-.50391-9.5742z" fill="#2A4dd0" id="svg-el-1"/></g></g></svg>