<svg xmlns="http://www.w3.org/2000/svg" width="400" height="400" viewBox="0 0 400 400"><g transform="translate(200, 200) translate(-128, -128) scale(0.5) translate(-144, -144)" fill="#000"><path xmlns="http://www.w3.org/2000/svg" d="m193.02 349.26c.72266 18.176 2.2422 34.504 4.6602 49.926 6.5195 42.133 24.52 81.223 53.555 116.16 36.551 43.973 83.191 77.492 142.71 102.53 2.1797.89062 4.2422 1.2266 6.1172 1.2266 3.0156.0 5.6289-.85938 7.7773-1.7695 53.586-22.648 96.883-52.688 132.36-91.867 27.199-30.023 46.297-64.117 56.766-101.3 7.1953-25.418 9.0547-51.059 10.004-74.949.82812-19.539 1.3242-39.07 1.8008-58.59.32422-12.934.64453-25.828 1.0625-38.746.015625-.09375.015625-.92188.015625-1 0-.37109-.046875-.82812-.09375-1.3086-1.875-40.793-89.758-63.457-176.41-67.848-10.297-.55859-21.52-.83594-33.344-.83594-100.11.0-207.06 23.922-209.7 68.266-.125.78906-.15625 1.4336-.15625 1.7227v.40234.66016c.35547 11.391.62891 22.789.92188 34.148.50781 20.723 1.0508 42.145 1.957 63.176zm13.422-97.586c.0625-.38672.09375-.76953.10938-1.1641.67578-25.203 80.273-53.297 193.45-53.297 11.531.0 22.449.27734 32.652.82031 98.434 5 160.1 31.117 160.79 52.445.0.30859.03125.59766.078126.875v.03125c-.43359 12.949-.75391 25.875-1.0625 38.824-.49609 19.438-.96875 38.871-1.8008 58.316-.90625 22.938-2.6758 47.414-9.4219 71.203-9.7617 34.762-27.664 66.652-53.137 94.785-33.859 37.375-75.281 66.086-126.6 87.773-1.0469.43359-1.3867.49609-1.3711.49609-56.914-23.953-101.52-55.961-136.34-97.879-27.102-32.629-43.926-69.039-49.988-108.24-2.3203-14.793-3.7773-30.504-4.4727-48.074-.89062-20.906-1.4336-42.266-1.9531-62.898-.27734-11.406-.56641-22.812-.90625-33.992h-.027344v-.023438z" fill="#2A4dd0" id="svg-el-0"/></g></svg>