<svg xmlns="http://www.w3.org/2000/svg" width="400" height="400" viewBox="0 0 400 400"><g transform="translate(200, 200) translate(-128, -128) scale(0.5) translate(-144, -144)" fill="#000"><g xmlns="http://www.w3.org/2000/svg" fill="#2A4dd0"><path d="m404.8 578.43h-8.3555c-13.309.0-26.387-3.6094-37.809-10.477l-164.39-98.621c-21.996-13.199-35.66-37.363-35.66-63.016v-9.2773c0-11.883 6.1719-22.484 16.543-28.359 2.0586-1.1758 4.1758-2.0977 6.3594-2.7695-.60938-2.5625-.92188-5.1875-.92188-7.8945.0-11.988 6.1289-22.797 16.395-28.969l161.68-97.004c11.418-6.8672 24.496-10.477 37.805-10.477h7.0938c13.309.0 26.387 3.6094 37.809 10.477l164.39 98.621c22 13.203 35.664 37.344 35.664 62.996v21.559c0 26.785-14.59 51.473-38.059 64.383l-163.13 89.699c-10.809 5.9805-23.07 9.1289-35.414 9.1289zM191.25 385.41c-2.625.0-4.7227.94531-5.7734 1.5547-1.7617 1.0078-5.8789 3.9883-5.8789 10.078v9.2773c0 18.324 9.7617 35.582 25.484 45.008l164.39 98.621c8.1641 4.8906 17.488 7.4727 26.996 7.4727h8.3555c8.8164.0 17.551-2.2461 25.297-6.5078l163.13-89.699c16.773-9.2148 27.184-26.848 27.184-45.992v-21.559c0-18.324-9.7617-35.582-25.484-45.008l-164.39-98.621c-8.1875-4.8945-17.508-7.4766-27.016-7.4766h-7.0938c-9.5078.0-18.828 2.582-26.996 7.4727l-161.68 97.023c-3.9453 2.3516-6.2148 6.3633-6.2148 10.961s2.2656 8.6055 6.2148 10.957l161.68 97.004c8.1641 4.8906 17.488 7.4727 26.996 7.4727h7.8086c9.1328.0 18.117-2.3945 26.051-6.9258l132.42-75.656c5.0391-2.918 11.441-1.1328 14.316 3.9062 2.875 5.0391 1.1328 11.441-3.9062 14.316l-132.42 75.656c-11.082 6.3398-23.68 9.6758-36.465 9.6758h-7.8086c-13.309.0-26.387-3.6094-37.809-10.477l-161.32-96.754c-.042968-.019531-.10547-.0625-.16797-.10547-2.0977-1.2578-4.1133-1.6758-5.8984-1.6758z" fill="#2A4dd0" id="svg-el-0"/><path d="m400.67 394.06c-22.691.0-45.387-4.7461-54.875-14.234-17.422-17.422-17.926-48.469-17.926-51.957.0-2.793 1.1133-5.4805 3.0859-7.4297 1.9727-1.9531 4.6406-3.0664 7.4102-3.0664.50391-.27344 16.164-.019532 32.18 6.0234 5.4375-18.746 20.027-33.777 22.02-35.793 4.0938-4.0938 10.746-4.0938 14.84.0 2.0156 2.0156 16.773 17.254 22.148 36.191 15.262-6.1094 31.047-6.4219 33.355-6.4219h.042969c2.7695.0 5.4375 1.0898 7.4102 3.0664 1.9961 1.9727 3.1094 4.6406 3.1094 7.4336.0 3.4844-.50391 34.531-17.926 51.957-9.4922 9.4844-32.184 14.23-54.875 14.23zm-50.699-54.516c1.4492 8.6914 4.5352 19.293 10.664 25.441 10.852 10.852 69.23 10.852 80.062.0 6.1094-6.1094 9.1953-16.773 10.645-25.422-8.0625 1.3633-17.82 4.1992-24.078 9.5508-3.3359 2.875-8.1016 3.3359-11.965 1.1758-3.8398-2.1641-5.918-6.4883-5.2266-10.832.0-.082031.1875-1.1328.21094-1.2188.125-9.5078-5.207-19.523-10.328-26.785-5.1211 7.1797-10.453 16.879-10.453 25.57.46094 4.1758-1.4258 9.1094-5.1016 11.188-3.6328 2.0977-8.0391 2.625-11.379.0625-6.3398-4.8477-15.473-7.4297-23.051-8.7305z" fill="#2A4dd0" id="svg-el-1"/></g></g></svg>